<svg width="1961" height="1853" viewBox="0 0 1961 1853" fill="none" xmlns="http://www.w3.org/2000/svg">
<path d="M1324.41 1253.27C1509.56 1236.7 1529.53 1246.96 1384.31 1284.04C1239.09 1321.12 1259.06 1331.38 1444.21 1314.81C1629.36 1298.24 1649.32 1308.49 1504.11 1345.57C1358.89 1382.65 1378.86 1392.91 1564.01 1376.34C1749.16 1359.77 1769.12 1370.02 1623.91 1407.11C1478.69 1444.19 1498.66 1454.44 1683.81 1437.87C1868.96 1421.3 1888.92 1431.56 1743.7 1468.64C1598.49 1505.72 1618.45 1515.98 1803.6 1499.41C1988.75 1482.84 2008.72 1493.09 1863.5 1530.17C1718.29 1567.25 1738.25 1577.51 1923.4 1560.94" stroke="#4C75F2" stroke-opacity="0.2" stroke-width="4"><animate attributeType="XML" attributeName="stroke-dasharray" repeatCount="indefinite" dur="3.5714285714285716s" values="0,0,0,2598.63037109375; 
          0,1299.315185546875,1299.315185546875,0; 
          2598.63037109375,0,0,0" keyTimes="0; 0.5; 1" fill="freeze"></animate></path>
<path d="M392.436 1746.29C456.671 1513.6 478.18 1500.3 456.964 1706.37C435.747 1912.44 457.257 1899.14 521.491 1666.45C585.726 1433.76 607.236 1420.45 586.019 1626.52C564.803 1832.6 586.312 1819.29 650.547 1586.6C714.782 1353.91 736.291 1340.61 715.075 1546.68C693.859 1752.75 715.368 1739.44 779.603 1506.76C843.837 1274.07 865.346 1260.76 844.131 1466.83C822.913 1672.91 844.423 1659.6 908.658 1426.91C972.893 1194.22 994.402 1180.91 973.185 1386.99C951.969 1593.06 973.478 1579.75 1037.71 1347.06" stroke="#4C75F2" stroke-opacity="0.1" stroke-width="4"><animate attributeType="XML" attributeName="stroke-dasharray" repeatCount="indefinite" dur="3.5714285714285716s" values="0,0,0,2598.63037109375; 
          0,1299.315185546875,1299.315185546875,0; 
          2598.63037109375,0,0,0" keyTimes="0; 0.5; 1" fill="freeze"></animate></path>
<path d="M1180.82 1141.79C792.317 1046 756.578 1011.72 1073.6 1038.93C1390.63 1066.15 1354.89 1031.87 966.388 936.084C577.883 840.299 542.143 806.014 859.17 833.232C1176.2 860.449 1140.46 826.165 751.952 730.38C363.447 634.595 327.709 600.312 644.735 627.528C961.76 654.745 926.021 620.461 537.517 524.676C149.012 428.892 113.273 394.608 430.299 421.824C747.326 449.043 711.586 414.758 323.081 318.972C-65.4236 223.188 -101.162 188.904 215.865 216.122C532.891 243.339 497.152 209.055 108.647 113.27" stroke="#4C75F2" stroke-opacity="0.2" stroke-width="5"><animate attributeType="XML" attributeName="stroke-dasharray" repeatCount="indefinite" dur="3.5714285714285716s" values="0,0,0,2598.63037109375; 
          0,1299.315185546875,1299.315185546875,0; 
          2598.63037109375,0,0,0" keyTimes="0; 0.5; 1" fill="freeze"></animate></path>
</svg>
