<svg width="731" height="458" viewBox="0 0 731 458" fill="none" xmlns="http://www.w3.org/2000/svg">
<path d="M62.1145 456.029C62.1145 456.029 62.1145 436.293 52.8159 407.846C43.5185 379.401 -4.40147 373.679 0.605199 332.911C27.4252 342.566 48.5252 382.359 53.1732 394.47C37.4385 333.269 48.5252 289.998 48.5252 289.998C48.5252 289.998 69.9812 335.773 62.1145 394.778C90.3652 323.971 112.628 314.315 112.628 314.315C112.628 314.315 106.816 357.229 91.4385 379.759C76.0612 402.287 64.2599 401.931 64.2599 401.931C64.2599 401.931 64.6172 438.961 71.4119 456.029H62.1145Z" fill="white"/>
<path d="M679.034 456.029C679.034 456.029 679.034 436.293 669.735 407.846C660.438 379.401 612.516 373.679 617.523 332.911C644.344 342.566 665.444 382.359 670.092 394.47C654.358 333.269 665.444 289.998 665.444 289.998C665.444 289.998 686.9 335.773 679.034 394.778C707.284 323.971 729.547 314.315 729.547 314.315C729.547 314.315 723.735 357.229 708.358 379.759C692.98 402.287 681.179 401.931 681.179 401.931C681.179 401.931 681.536 438.961 688.331 456.029H679.034Z" fill="white"/>
<path d="M205.801 414.456L208.692 436.628L202.255 447.713L186.699 441.634L181.841 419.998" fill="#FECAD0"/>
<path d="M241.91 452.169L207.977 432.516L201.539 441.635H186.698L185.089 455.403H241.041C242.813 455.403 243.443 453.057 241.91 452.169Z" fill="#171C51"/>
<path d="M85.0996 414.456L80.8089 436.628L87.2449 447.713L102.801 441.634L109.06 419.998" fill="#FECAD0"/>
<path d="M222.736 198.275L197.314 231.722C196.43 232.886 195.9 234.273 195.801 235.729L193.629 265.506L184.512 202.926L197.384 181.383L196.096 177.098L191.236 160.962L216.306 151.494L217.833 156.003L225.789 179.605C227.932 185.95 226.784 192.939 222.736 198.275Z" fill="#FECAD0"/>
<path d="M217.833 156.004L196.095 177.097L191.235 160.963L216.307 151.493L217.833 156.004Z" fill="#EE84AA"/>
<path d="M210.437 420.181L179.693 425.181L155.532 321.406L149.537 295.662L149.383 295.018L110.192 427.801L79.3788 419.34L108.021 234.846L110.192 220.869L188.265 219.706L189.105 227.325L210.437 420.181Z" fill="#96A5CD"/>
<path d="M189.105 227.325L108.021 234.847L109.184 227.325L110.192 220.868L188.265 219.705L188.965 226.021L189.105 227.325Z" fill="#7389BB"/>
<path d="M188.965 226.022C172.017 228.474 121.188 227.577 109.184 227.326L110.192 220.869L188.265 219.706L188.965 226.022Z" fill="#171C51"/>
<path d="M220.285 149.995L202.217 160.752L199.891 162.124L194.442 165.373V165.515L194.33 167.839L193.505 186.791L193.393 189.115L192.565 208.065L192.467 210.391L192.202 216.344C192.202 216.344 195.423 219.915 194.526 222.955C194.302 223.696 188.938 224.272 180.941 224.664C180.183 224.705 179.414 224.735 178.615 224.776C173.082 225 166.527 225.153 159.665 225.224C158.894 225.224 158.123 225.239 157.339 225.239C151.035 225.28 144.537 225.239 138.389 225.127C137.603 225.112 136.834 225.083 136.063 225.071C128.865 224.903 122.253 224.635 117.113 224.215C116.301 224.159 115.515 224.089 114.787 224.02C109.633 223.528 106.481 222.885 106.551 222.059C106.915 217.772 109.59 214.901 109.59 214.901L109.605 210.391L109.618 208.065L109.689 189.115L109.703 186.791L109.773 167.839V166.635L107.854 165.515L95.8219 158.511L93.4979 157.152L78.4819 148.399L79.3085 146.563L80.3592 144.239L88.8752 125.273L89.9259 122.963L93.4979 115.007L94.2392 113.355C94.7299 112.275 95.2485 111.211 95.8219 110.188C97.0272 107.989 98.4139 105.931 99.9539 103.997C100.585 103.199 101.243 102.415 101.929 101.672C105.571 97.6668 109.941 94.3748 114.787 91.9668C115.543 91.5734 116.329 91.2228 117.113 90.8868C120.459 89.4441 124.003 88.4228 127.687 87.8481L133.262 86.9801L136.063 86.5454L138.389 86.1814L138.473 86.1668L157.339 87.7361L159.665 87.9321L165.379 88.4081L170.197 89.0801C170.491 89.1228 170.799 89.1641 171.093 89.2201C173.671 89.6268 176.191 90.2708 178.615 91.1108C179.399 91.3774 180.17 91.6721 180.941 91.9948C186.374 94.2201 191.305 97.5121 195.423 101.672C196.165 102.415 196.894 103.199 197.579 103.997C198.393 104.936 199.162 105.916 199.891 106.925C200.731 108.073 201.502 109.277 202.217 110.511C203.001 111.841 203.715 113.228 204.359 114.656L208.098 122.963L209.149 125.273L217.694 144.239L218.743 146.563L220.285 149.995Z" fill="#587CF8"/>
<g opacity="0.25">
<path d="M199.891 144.239H180.94V125.273H199.891V144.239ZM178.615 122.963H159.664V103.997H178.615V122.963ZM178.615 144.239H159.664V125.273H178.615V144.239ZM178.615 165.515H159.664V146.564H178.615V165.515ZM178.615 186.791H159.664V167.84H178.615V186.791ZM178.615 208.065H159.664V189.115H178.615V208.065ZM157.339 122.963H138.388V103.997H157.339V122.963ZM157.339 144.239H138.388V125.273H157.339V144.239ZM157.339 165.515H138.388V146.564H157.339V165.515ZM157.339 186.791H138.388V167.84H157.339V186.791ZM157.339 208.065H138.388V189.115H157.339V208.065ZM136.063 122.963H117.112V103.997H136.063V122.963ZM136.063 144.239H117.112V125.273H136.063V144.239ZM136.063 165.515H117.112V146.564H136.063V165.515ZM136.063 186.791H117.112V167.84H136.063V186.791ZM136.063 208.065H117.112V189.115H136.063V208.065ZM114.787 144.239H95.8213V125.273H114.787V144.239ZM217.693 144.239H202.216V125.273H209.149L208.099 122.963H202.216V110.511C201.501 109.277 200.731 108.073 199.891 106.925V122.963H180.94V103.997H197.58C196.893 103.199 196.165 102.415 195.423 101.672H180.94V91.9947C180.169 91.672 179.399 91.3773 178.615 91.1107V101.672H159.664V87.932L157.339 87.736V101.672H138.388V86.1813L136.063 86.5453V101.672H117.112V90.888C116.328 91.2226 115.544 91.5733 114.787 91.9667V101.672H101.929C101.243 102.415 100.584 103.199 99.9546 103.997H114.787V122.963H95.8227V110.188C95.248 111.211 94.7293 112.276 94.24 113.355L93.4973 115.007V122.963H89.9253L88.8747 125.273H93.4973V144.239H80.36L79.308 146.563H93.4973V157.152L95.8227 158.511V146.563H114.787V165.515H107.855L109.773 166.635V167.839H114.787V186.791H109.703L109.689 189.115H114.787V208.065H109.619L109.605 210.391H114.787V224.02C115.516 224.089 116.3 224.159 117.112 224.215V210.391H136.063V225.071C136.833 225.084 137.604 225.112 138.388 225.127V210.391H157.339V225.239C158.123 225.239 158.893 225.224 159.664 225.224V210.391H178.615V224.776C179.413 224.735 180.184 224.705 180.94 224.664V210.391H192.468L192.565 208.065H180.94V189.115H193.392L193.504 186.791H180.94V167.839H194.331L194.443 165.515H180.94V146.563H199.891V162.124L202.216 160.752V146.563H218.744L217.693 144.239Z" fill="white"/>
</g>
<path d="M171.093 89.2206C169.286 96.854 165.014 104.306 155.196 104.221C139.242 104.082 134.522 91.9233 133.261 86.9793L138.472 86.1673L165.378 88.4086L170.197 89.0806C170.49 89.122 170.8 89.1646 171.093 89.2206Z" fill="white"/>
<path d="M191.24 160.956L189.196 130.043" stroke="#171C51" stroke-width="0.7" stroke-miterlimit="10" stroke-linecap="round" stroke-linejoin="round"/>
<path d="M177.9 37.2285C177.9 37.2285 181.234 40.8698 178.615 47.1872C175.995 53.5045 174.679 58.8685 174.44 64.8352C174.244 69.7658 152.787 72.6645 145.419 73.5058C143.892 73.6872 142.968 73.7712 142.968 73.7712L137.127 62.3005C136.358 60.2685 134.494 56.4312 132.87 51.9912C130.208 44.7925 128.163 36.0245 132.366 30.8552C139.159 22.5072 146.722 26.2045 158.319 20.4912C169.916 14.7619 175.758 9.43918 182.424 17.2685C189.106 25.0992 177.9 37.2285 177.9 37.2285Z" fill="#171C51"/>
<path d="M147.38 71.026L145.419 73.5046C143.892 73.6873 142.968 73.7713 142.968 73.7713L137.128 62.3006C136.358 60.2686 134.494 56.4313 132.87 51.9913C138.627 49.638 142.618 43.6153 142.618 43.6153L147.38 71.026Z" fill="#0D1235"/>
<path d="M165.379 88.4083C165.379 88.4083 165.926 99.7536 153.642 99.3056C141.372 98.8563 138.472 86.1669 138.472 86.1669L141.876 85.4536C141.876 85.4536 143.123 71.951 141.876 62.3003L165.392 74.2763C165.168 74.4856 164.959 74.7376 164.763 75.0043C162.031 78.7576 162.339 87.3296 162.339 87.3296L165.379 88.4083Z" fill="#FECAD0"/>
<path d="M162.339 87.3294C147.205 87.7761 142.974 70.0748 142.974 70.0748L164.762 75.0041C162.031 78.7574 162.339 87.3294 162.339 87.3294Z" fill="#EE84AA"/>
<path d="M176.01 63.3085C176.051 65.5072 175.939 67.6218 175.646 69.5978C174.412 77.7498 170.071 83.5205 159.566 82.6792C144.06 81.4325 141.246 66.1938 141.246 66.1938C141.246 66.1938 137.254 69.5272 133.374 65.7178C129.508 61.9072 131.468 56.1232 135.223 55.4645C137.254 55.1138 139.243 57.1738 140.656 59.1485C141.26 60.0165 142.618 59.5685 142.618 58.5178V43.6152C142.618 43.6152 161.499 44.3992 172.704 40.2818C172.774 40.2538 172.83 40.2392 172.9 40.2112C174.694 41.8645 175.351 44.0632 175.547 46.4725C175.814 49.8338 175.211 53.5872 175.575 56.7525C175.827 58.9672 175.995 61.1792 176.01 63.3085Z" fill="#FECAD0"/>
<path d="M164.762 66.319L166.253 65.443C167.254 64.8537 167.661 63.611 167.2 62.5444L164.762 56.9017" stroke="#E45E8E" stroke-width="0.7" stroke-miterlimit="9" stroke-linecap="round"/>
<path d="M159.385 60.9101C159.385 61.6515 158.909 62.2515 158.321 62.2515C157.734 62.2515 157.258 61.6515 157.258 60.9101C157.258 60.1701 157.734 59.5688 158.321 59.5688C158.909 59.5688 159.385 60.1701 159.385 60.9101Z" fill="black"/>
<path d="M172.169 60.2694C172.169 61.0108 171.693 61.6108 171.107 61.6108C170.519 61.6108 170.043 61.0108 170.043 60.2694C170.043 59.5281 170.519 58.9281 171.107 58.9281C171.693 58.9281 172.169 59.5281 172.169 60.2694Z" fill="black"/>
<path d="M133.959 59.569C136.238 58.273 139.007 60.4624 138.472 63.7264" stroke="#E45E8E" stroke-width="0.7" stroke-miterlimit="9" stroke-linecap="round"/>
<path d="M159.662 72.3983C159.662 72.3983 162.642 75.4383 166.635 73.0543" stroke="#E45E8E" stroke-width="0.7" stroke-miterlimit="9" stroke-linecap="round"/>
<path d="M153.111 55.0878C153.111 55.0878 155.326 51.7398 159.747 53.2198" stroke="#171C51" stroke-width="1.05067" stroke-miterlimit="10" stroke-linecap="round" stroke-linejoin="round"/>
<path d="M174.441 53.3984C174.441 53.3984 171.8 50.4797 167.552 53.1557" stroke="#171C51" stroke-width="1.05067" stroke-miterlimit="10" stroke-linecap="round" stroke-linejoin="round"/>
<path d="M157.402 66.319C157.402 68.3937 155.721 70.0737 153.648 70.0737C151.573 70.0737 149.893 68.3937 149.893 66.319C149.893 64.2457 151.573 62.5644 153.648 62.5644C155.721 62.5644 157.402 64.2457 157.402 66.319Z" fill="#FBB8C2"/>
<path d="M176.01 63.3086C176.051 65.5072 175.939 67.6219 175.646 69.5979C175.099 69.8912 174.468 70.0739 173.796 70.0739C171.724 70.0739 170.043 68.3926 170.043 66.3206C170.043 64.2472 171.724 62.5659 173.796 62.5659C174.623 62.5659 175.394 62.8326 176.01 63.3086" fill="#FBB8C2"/>
<path d="M184.016 189.747H164.69C162.374 189.747 160.877 187.868 161.348 185.552L169.54 145.201C170.01 142.884 172.269 141.007 174.586 141.007H196.684C199 141.007 200.497 142.884 200.026 145.201L189.062 185.552C188.592 187.868 186.333 189.747 184.016 189.747Z" fill="#1F3251"/>
<path d="M186.787 191.467H167.462C165.146 191.467 163.648 189.588 164.119 187.272L172.311 146.921C172.782 144.604 175.04 142.725 177.358 142.725H196.683C199 142.725 200.496 144.604 200.027 146.921L191.834 187.272C191.363 189.588 189.104 191.467 186.787 191.467Z" fill="#2C4183"/>
<path d="M182.074 183.316C182.074 187.308 177.298 190.824 177.298 190.824C177.298 190.824 178.433 196.259 169.441 198.094C160.434 199.942 151.317 192.14 151.317 192.14L93.2316 204.396C91.7182 204.718 90.2062 204.872 88.7076 204.872C82.1942 204.872 75.9196 201.959 71.7169 196.776C66.4502 190.291 65.3302 181.37 68.8462 173.792L77.2356 155.667L80.1489 149.364L109.773 166.635L107.657 170.276L104.59 175.571L151.61 173.904C151.61 173.904 156.442 170.556 159.538 166.452C162.648 162.335 163.768 161.382 166.218 162.936C168.657 164.478 165.981 171.523 163.894 174.199C171.402 178.372 180.408 175.15 184.036 175.683C187.677 176.23 187.733 180.515 182.074 183.316Z" fill="#FECAD0"/>
<path d="M182.073 183.318C177.454 185.316 166.1 183.526 162.881 181.381" stroke="#E45E8E" stroke-width="0.7" stroke-miterlimit="9" stroke-linecap="round"/>
<path d="M177.305 190.828C170.927 192.079 163.775 191.663 160.139 188.027" stroke="#E45E8E" stroke-width="0.7" stroke-miterlimit="9" stroke-linecap="round"/>
<path d="M175.243 160.312C174.041 160.312 173.259 159.338 173.493 158.136L175.035 150.284C175.271 149.081 176.436 148.108 177.637 148.108C178.839 148.108 179.623 149.081 179.387 150.284L177.845 158.136C177.609 159.338 176.444 160.312 175.243 160.312Z" fill="#325ECB"/>
<path d="M104.59 175.57H88.9738" stroke="#E45E8E" stroke-width="0.7" stroke-miterlimit="9" stroke-linecap="round"/>
<path d="M197.391 181.381L205.684 171.279" stroke="#E45E8E" stroke-width="0.7" stroke-miterlimit="9" stroke-linecap="round"/>
<path d="M109.775 166.63L126.698 134.087" stroke="#171C51" stroke-width="0.7" stroke-miterlimit="10" stroke-linecap="round" stroke-linejoin="round"/>
<path d="M109.773 166.635L107.658 170.276L77.2355 155.667L80.1488 149.364L109.773 166.635Z" fill="#EE84AA"/>
<path d="M149.381 295.013L160.139 259.966" stroke="#171C51" stroke-width="0.7" stroke-miterlimit="10" stroke-linecap="round" stroke-linejoin="round"/>
<path d="M47.5905 452.169L81.5239 432.516L87.9612 441.635H102.801L104.411 455.403H48.4585C46.6865 455.403 46.0572 453.057 47.5905 452.169Z" fill="#171C51"/>
<path d="M109.563 428.708L79.6952 422.559C77.6672 422.14 76.3618 420.159 76.7805 418.13L77.7565 413.39C78.1738 411.362 80.1552 410.056 82.1832 410.474L112.051 416.624C114.079 417.042 115.385 419.023 114.967 421.051L113.99 425.792C113.573 427.82 111.591 429.124 109.563 428.708Z" fill="#96A5CD"/>
<path d="M81.593 410.41L112.628 416.801" stroke="#171C51" stroke-width="0.7" stroke-miterlimit="10" stroke-linecap="round" stroke-linejoin="round"/>
<path d="M210.878 422.986L180.894 428.539C178.858 428.916 176.902 427.571 176.525 425.536L175.644 420.776C175.266 418.74 176.612 416.786 178.646 416.407L208.63 410.854C210.666 410.476 212.622 411.822 213 413.856L213.881 418.616C214.258 420.652 212.913 422.608 210.878 422.986Z" fill="#96A5CD"/>
<path d="M178.075 416.572L209.231 410.801" stroke="#171C51" stroke-width="0.7" stroke-miterlimit="10" stroke-linecap="round" stroke-linejoin="round"/>
<path d="M118.237 212.449L186.302 202.436" stroke="#171C51" stroke-width="0.7" stroke-miterlimit="10" stroke-linecap="round" stroke-linejoin="round"/>
<path d="M159.3 264.26L155.532 321.406L149.537 295.663L149.579 294.36L159.3 264.26Z" fill="#7389BB"/>
<path d="M422.85 93.2362L408.04 149.034C405.678 157.931 396.405 163.091 387.6 160.41L377.606 157.366L407.769 86.4042L422.85 93.2362Z" fill="#FECAD0"/>
<path d="M413.79 77.7631C412.597 76.2724 403.181 81.2791 400.916 81.8164C398.652 82.3524 400.677 88.0044 404.85 87.4431C409.022 86.8817 410.333 82.4844 410.333 82.4844L413.79 77.7631Z" fill="#EE84AA"/>
<path d="M406.863 65.7649L406.578 102.26L410.511 101.425V65.7796C410.511 64.9876 410.002 64.2863 409.249 64.0423C408.075 63.6649 406.873 64.5329 406.863 65.7649Z" fill="#1F3251"/>
<path d="M412.483 78.3887C412.483 78.3887 400.439 90.458 402.763 93.9446C405.088 97.4313 412.51 91.0833 413.939 89.1166C413.76 93.1393 418.902 96.922 421.986 96.4473C426.634 95.7326 428.511 90.994 427.08 88.8486C425.651 86.7033 416.979 81.6966 416.979 81.6966C416.979 81.6966 414.783 75.17 412.483 78.3887" fill="#FECAD0"/>
<path d="M294.943 414.456L290.651 436.628L297.089 447.713L312.645 441.634L318.903 419.998" fill="#FECAD0"/>
<path d="M257.434 452.169L291.367 432.516L297.804 441.635H312.646L314.255 455.403H258.303C256.53 455.403 255.9 453.057 257.434 452.169Z" fill="#171C51"/>
<path d="M440.973 414.456L445.265 436.628L438.827 447.713L423.271 441.634L417.011 419.998" fill="#FECAD0"/>
<path d="M478.482 452.169L444.548 432.516L438.112 441.635H423.271L421.662 455.403H477.614C479.386 455.403 480.015 453.057 478.482 452.169Z" fill="#171C51"/>
<path d="M443.768 406.594L411.707 413.612L362.755 249.722L323.691 410.796L291.91 406.119L312.318 234.875L315.455 208.5L362.979 204.872L394.9 202.435L395.488 204.872L395.824 206.287L443.768 406.594Z" fill="#587CF8"/>
<path d="M395.824 206.287L312.318 234.875L315.455 208.5L362.979 204.872H395.488L395.824 206.287Z" fill="#3456B6"/>
<path d="M397.967 201.147C398.247 203.205 396.819 205.111 394.746 205.419L318.186 216.68C315.581 217.059 313.27 214.985 313.367 212.352L315.567 152.307L317.178 108.577L328.873 83.0438L331.297 77.7625H358.146L361.074 78.1559C361.802 78.2545 362.53 78.3665 363.245 78.5065C374.829 80.7318 384.745 88.2398 390.039 98.8705L406.581 132.179L390.837 148.104L397.967 201.147Z" fill="#FEB160"/>
<path d="M326.982 101.869C326.491 103.073 326.282 104.362 326.379 105.65L329.32 144.238L326.856 145.681L315.567 152.306L301.42 160.598L299.054 161.985L294.571 123.551C292.61 106.687 301.714 90.4805 317.135 83.3939L326.688 78.9965L331.324 76.8672L334.644 77.7632L336.604 78.2952L332.808 87.5819L326.982 101.869Z" fill="#FEB160"/>
<path d="M368.077 139.994L384.427 103.914C385.056 102.526 386.269 101.49 387.74 101.086L454.223 82.8488C455.348 82.5408 457.644 85.3181 457.131 86.3648L432.937 131.273C432.161 132.851 430.815 134.077 429.171 134.699L366.644 158.405L368.077 139.994Z" fill="#1F3251"/>
<path d="M369.269 142.66L385.618 106.579C386.248 105.191 387.462 104.156 388.932 103.752L455.414 85.5148C456.54 85.2068 457.501 86.3708 456.988 87.4174L434.129 133.937C433.354 135.517 432.008 136.741 430.364 137.365L367.837 161.071L369.269 142.66Z" fill="#2C4183"/>
<path d="M385.418 151.158C385.418 151.158 386.762 154.295 380.151 160.374C373.526 166.452 363.511 162.518 363.511 162.518L336.941 182.672C333.187 185.488 328.691 186.931 324.181 186.931C320.819 186.931 317.458 186.146 314.362 184.535C308.675 181.579 304.627 176.215 303.339 169.94L303.157 169.03L301.419 160.598L315.567 152.306L326.857 145.682L327.234 147.782L328.999 157.516L357.881 143.384C357.881 143.384 363.694 134.083 366.466 130.778C369.239 127.472 372.363 126.94 373.343 129.083C374.338 131.226 368.078 139.994 368.078 139.994C368.078 139.994 370.402 139.812 377.378 137.39C384.353 134.98 388.905 129.98 390.781 131.492C392.659 133.019 391.594 137.39 389.087 140.794C389.718 146.788 385.418 151.158 385.418 151.158Z" fill="#FECAD0"/>
<path d="M327.234 147.782L303.157 169.03L301.42 160.598L315.568 152.306L326.856 145.681L327.234 147.782Z" fill="#EE84AA"/>
<path d="M363.245 78.5058C362.138 84.7658 358.609 91.0978 349.126 92.1192C341.633 92.9472 336.409 90.6765 332.809 87.5818C331.185 86.1672 329.882 84.5845 328.873 83.0432C327.921 81.6152 327.206 80.2138 326.689 78.9965L331.325 76.8672L334.643 77.7632H358.146L361.074 78.1552C361.802 78.2538 362.53 78.3658 363.245 78.5058Z" fill="white"/>
<path d="M349.841 87.862C336.689 89.3327 331.325 76.866 331.325 76.866L334.013 75.7047C334.013 75.7047 334.462 65.242 333.481 59.1633L337.235 60.1287L355.738 64.8913C354.029 68.8967 354.477 74.5007 354.687 76.2927C354.73 76.6567 354.758 76.866 354.758 76.866L358.146 77.7633C358.146 77.7633 358.693 86.882 349.841 87.862Z" fill="#FECAD0"/>
<path d="M354.687 76.2929C347.277 76.4609 337.865 73.8836 334.98 64.2049C334.321 62.0063 335.301 60.7449 337.235 60.1289L355.737 64.8916C354.028 68.8969 354.476 74.4996 354.687 76.2929Z" fill="#EE84AA"/>
<path d="M330.347 52.5508L323.619 44.2801C320.139 40.0041 320.499 33.7788 324.448 29.9321C320.815 21.2228 325.95 11.3494 335.166 9.32278L342.038 7.81078C343.262 7.54145 344.415 7.02145 345.427 6.28145L352.023 1.46411C353.62 0.298781 355.763 0.217447 357.442 1.26145C359.604 2.60545 360.359 5.39211 359.17 7.64278L357.148 11.4694C356.907 11.9254 357.424 12.4068 357.862 12.1334L369.796 4.68145C371.335 3.72145 373.34 4.00278 374.555 5.34944C375.732 6.65344 375.843 8.59878 374.823 10.0268L366.591 21.5654C366.304 21.9681 366.706 22.4988 367.171 22.3334L369.188 21.6188C371.25 20.8881 373.543 21.6988 374.688 23.5628C375.784 25.3454 375.554 27.6348 374.12 29.1601C370.186 33.3454 362.794 41.7148 361.818 46.4708C360.476 52.9974 330.347 52.5508 330.347 52.5508Z" fill="#171C51"/>
<path d="M362.783 39.6373C362.559 40.9119 362.348 42.8453 362.348 45.6599C362.348 47.5093 362.713 50.5773 362.755 53.9239C362.783 56.2626 362.657 58.7559 362.152 61.0959C360.976 66.5293 357.74 71.1519 349.575 71.1519C332.851 71.1519 331.156 54.6106 331.156 54.6106C331.156 54.6106 330.708 58.5879 326.953 56.7119C324.153 55.3106 323.2 48.9239 326.367 47.4119C328.228 46.5146 330.217 47.7333 331.548 48.8826C332.108 49.3586 332.963 48.9106 332.893 48.1813L332.221 40.3799C336.787 41.7666 353.147 37.1159 359.575 30.7719C359.688 32.4799 360.864 34.4266 361.872 35.7853C362.685 36.8919 363.021 38.2786 362.783 39.6373Z" fill="#FECAD0"/>
<path d="M350.976 57.8444L352.467 56.9684C353.468 56.3791 353.873 55.1364 353.413 54.0684L350.976 48.4271" stroke="#E45E8E" stroke-width="0.7" stroke-miterlimit="9" stroke-linecap="round"/>
<path d="M345.598 51.0944C345.598 51.8344 345.122 52.4357 344.535 52.4357C343.947 52.4357 343.471 51.8344 343.471 51.0944C343.471 50.3531 343.947 49.7531 344.535 49.7531C345.122 49.7531 345.598 50.3531 345.598 51.0944Z" fill="black"/>
<path d="M358.383 50.3347C358.383 51.0747 357.907 51.676 357.319 51.676C356.732 51.676 356.256 51.0747 356.256 50.3347C356.256 49.5934 356.732 48.9934 357.319 48.9934C357.907 48.9934 358.383 49.5934 358.383 50.3347Z" fill="black"/>
<path d="M339.324 46.6127C339.324 46.6127 341.539 43.2647 345.96 44.746" stroke="#171C51" stroke-width="1.05067" stroke-miterlimit="10" stroke-linecap="round" stroke-linejoin="round"/>
<path d="M360.655 44.9239C360.655 44.9239 358.014 42.0052 353.766 44.6812" stroke="#171C51" stroke-width="1.05067" stroke-miterlimit="10" stroke-linecap="round" stroke-linejoin="round"/>
<path d="M345.96 61.0743L352.29 61.3729C352.29 61.3729 352.071 64.6503 348.883 64.4409C345.695 64.2329 345.96 61.0743 345.96 61.0743Z" fill="white"/>
<path d="M326.055 50.5397C327.933 49.377 329.631 50.8517 329.274 53.669" stroke="#E45E8E" stroke-width="0.7" stroke-miterlimit="9" stroke-linecap="round"/>
<path d="M345.014 57.4232C345.014 59.4979 343.332 61.1779 341.259 61.1779C339.184 61.1779 337.504 59.4979 337.504 57.4232C337.504 55.3499 339.184 53.6686 341.259 53.6686C343.332 53.6686 345.014 55.3499 345.014 57.4232Z" fill="#FBB8C2"/>
<path d="M362.754 53.9245C362.782 56.2632 362.657 58.7565 362.152 61.0952C361.914 61.1512 361.662 61.1792 361.41 61.1792C359.337 61.1792 357.656 59.4992 357.656 57.4259C357.656 55.3525 359.337 53.6725 361.41 53.6725C361.886 53.6725 362.334 53.7565 362.754 53.9245Z" fill="#FBB8C2"/>
<path d="M329.006 157.51L318.367 162.874" stroke="#E45E8E" stroke-width="0.7" stroke-miterlimit="9" stroke-linecap="round"/>
<path d="M389.085 140.792C386.761 145.44 373.946 147.242 373.946 147.242" stroke="#E45E8E" stroke-width="0.7" stroke-miterlimit="9" stroke-linecap="round"/>
<path d="M385.419 151.163C380.234 156.705 371.651 155.364 371.651 155.364" stroke="#E45E8E" stroke-width="0.7" stroke-miterlimit="9" stroke-linecap="round"/>
<path d="M326.855 145.684L322.42 113.48" stroke="#171C51" stroke-width="0.7" stroke-miterlimit="10" stroke-linecap="round" stroke-linejoin="round"/>
<path d="M381.516 171.279L349.122 198.591" stroke="#171C51" stroke-width="0.7" stroke-miterlimit="10" stroke-linecap="round" stroke-linejoin="round"/>
<path d="M321.223 421.676L290.979 417.77C288.927 417.506 287.477 415.628 287.742 413.574L288.362 408.773C288.627 406.72 290.506 405.27 292.559 405.536L322.803 409.44C324.857 409.704 326.306 411.585 326.041 413.638L325.421 418.438C325.155 420.492 323.277 421.941 321.223 421.676Z" fill="#587CF8"/>
<path d="M291.966 405.516L323.391 409.573" stroke="#171C51" stroke-width="0.7" stroke-miterlimit="10" stroke-linecap="round" stroke-linejoin="round"/>
<path d="M445.798 415.365L416.526 423.909C414.539 424.49 412.457 423.349 411.878 421.362L410.521 416.715C409.939 414.727 411.082 412.646 413.069 412.066L442.341 403.521C444.327 402.942 446.41 404.082 446.99 406.069L448.346 410.717C448.927 412.703 447.786 414.783 445.798 415.365Z" fill="#587CF8"/>
<path d="M412.517 412.286L442.933 403.408" stroke="#171C51" stroke-width="0.7" stroke-miterlimit="10" stroke-linecap="round" stroke-linejoin="round"/>
<g opacity="0.25">
<path d="M389.337 109.167C391.111 107.857 393.352 107.882 394.344 109.223C395.336 110.565 394.703 112.715 392.929 114.026C391.156 115.337 388.916 115.311 387.923 113.97C386.931 112.629 387.565 110.478 389.337 109.167Z" fill="white"/>
</g>
<g opacity="0.25">
<path d="M390.211 110.349C391.123 109.677 392.274 109.689 392.783 110.378C393.292 111.068 392.966 112.172 392.056 112.845C391.146 113.517 389.995 113.505 389.486 112.816C388.975 112.126 389.3 111.022 390.211 110.349Z" fill="white"/>
</g>
<path d="M365.318 234.846L356.869 273.996" stroke="#171C51" stroke-width="0.7" stroke-miterlimit="10" stroke-linecap="round" stroke-linejoin="round"/>
<path d="M479.191 127.865H478.309C478.617 127.781 478.91 127.795 479.191 127.865Z" fill="#2C4183"/>
<path d="M478.309 127.865C478.294 127.865 478.267 127.865 478.253 127.879V127.865H478.309Z" fill="#2C4183"/>
<path d="M544.792 375.809L542.648 437.254L549.084 448.339L564.64 442.261L568.753 381.351" fill="#FECAD0"/>
<path d="M509.428 452.794L543.362 433.141L549.799 442.261H564.639L566.248 456.029H510.296C508.524 456.029 507.895 453.682 509.428 452.794Z" fill="#FEB160"/>
<path d="M648.564 375.809L668.111 437.254L661.675 448.339L646.119 442.261L624.603 381.351" fill="#FECAD0"/>
<path d="M701.329 452.794L667.396 433.141L660.959 442.261H646.119L644.509 456.029H700.461C702.233 456.029 702.863 453.682 701.329 452.794Z" fill="#FEB160"/>
<path d="M546.703 173.603L538.656 405.516L570.484 407.847L582.643 262.828L630.564 412.287L658.815 403.408C658.815 403.408 620.55 245.663 616.259 223.132C611.967 200.603 614.114 188.796 607.319 173.064L546.703 173.603Z" fill="#212B6B"/>
<path d="M572.147 17.8627C562.974 15.36 556.002 28.7693 558.147 45.3987C560.291 62.028 545.989 77.9413 547.597 84.736C549.206 91.5307 581.034 101.008 602.313 100.829C623.59 100.649 630.206 91.352 626.273 84.736C622.339 78.12 616.079 71.6787 616.617 51.744C617.153 31.8093 603.314 -5.38266 572.147 17.8627Z" fill="#171C51"/>
<path d="M528.286 112.809L516.484 139.273L498.246 96.4885C498.246 96.4885 495.922 81.8765 494.044 77.7632C492.166 73.6498 492.793 68.1965 490.289 67.3912C487.786 66.5872 486.892 71.0579 486.892 74.9019C486.892 78.7459 486.265 82.4139 486.265 82.4139C486.265 82.4139 475.806 73.2925 475.18 70.4312C474.554 67.5712 474.913 57.8258 472.588 56.5738C470.262 55.3218 467.67 58.1832 467.134 66.4978C466.597 74.8125 483.316 99.0405 483.316 99.0405L495.564 158.405L529.894 164.663L550.278 131.226L528.286 112.809Z" fill="#FECAD0"/>
<path d="M633.431 120.609L620.796 129.783L619.607 130.637L610.18 137.487L608.751 174.857L602.995 174.744L601.803 174.717L585.192 174.38L584.002 174.367L567.391 174.029L566.199 174.001L549.587 173.665L548.398 173.637L546.702 173.609C546.702 173.609 547.416 164.477 544.74 151.157C542.052 137.837 545.806 128.677 545.806 128.677L528.284 112.807L537.262 98.8573C540.008 94.5853 543.874 91.1667 548.398 88.9827C548.79 88.7867 549.18 88.604 549.587 88.436C550.891 87.8613 552.248 87.4 553.635 87.0493L566.199 83.828L566.886 83.6453L567.391 83.52L571.648 82.4133L584.002 82.456H585.192L598.652 82.4973L601.803 84.1507L602.995 84.78L603.022 84.7947L614.34 90.72C616.244 91.7133 618.01 92.9187 619.607 94.3187C620.014 94.6547 620.419 95.02 620.796 95.3973C623.556 98.0733 625.755 101.336 627.198 104.977L633.431 120.609Z" fill="#587CF8"/>
<g opacity="0.25">
<path d="M549.587 88.4361V173.665L548.396 173.637V88.9828C548.788 88.7868 549.18 88.6041 549.587 88.4361Z" fill="white"/>
</g>
<g opacity="0.25">
<path d="M567.391 83.5201V174.029L566.199 174.001V83.8281L566.885 83.6454L567.391 83.5201Z" fill="white"/>
</g>
<g opacity="0.25">
<path d="M585.193 82.4557V174.38L584.001 174.366V82.4557H585.193Z" fill="white"/>
</g>
<g opacity="0.25">
<path d="M602.995 84.7805V174.744L601.803 174.716V84.1498L602.995 84.7805Z" fill="white"/>
</g>
<g opacity="0.25">
<path d="M620.797 95.3977V129.783L619.606 130.638V94.3191C620.013 94.6551 620.42 95.0191 620.797 95.3977Z" fill="white"/>
</g>
<path d="M603.022 84.7943C599.331 92.3303 589.59 96.7276 577.643 95.9436C567.614 95.2716 566.382 88.5903 566.885 83.6463L571.649 82.4129L598.653 82.4969L603.022 84.7943Z" fill="white"/>
<path d="M598.652 82.4973C598.652 82.4973 593.723 92.3306 581.116 92.3306C568.511 92.3306 571.648 82.4133 571.648 82.4133L575.22 81.2506L575.01 75.1026L574.687 66.1373L596.146 59.6106C595.696 60.5066 595.375 61.796 595.166 63.28C594.171 70.06 595.248 81.2506 595.248 81.2506L598.652 82.4973Z" fill="#FECAD0"/>
<path d="M596.146 59.6107C595.696 60.5067 595.375 61.796 595.166 63.28C595.166 63.2947 595.151 63.2947 595.151 63.308C589.127 75.424 578.987 75.564 575.008 75.1027L574.687 66.1387L596.146 59.6107Z" fill="#EE84AA"/>
<path d="M572.577 27.3509C574.553 37.9069 597.126 45.2096 598.726 46.4149C599.665 47.1216 599.97 48.7989 600.062 50.0669C600.082 50.3349 600.449 50.3883 600.542 50.1363C601.11 48.5789 602.251 46.3509 604.174 46.1229C607.159 45.7683 610.043 49.5296 608.341 54.0509C606.639 58.5736 599.817 56.1776 599.817 56.1776C599.817 56.1776 594.263 69.7109 581.483 70.0829C568.705 70.4549 565.883 59.6256 566.853 52.9789C567.823 46.3309 567.726 43.0256 567.165 39.1056C566.605 35.1869 571.502 32.4203 572.577 27.3509Z" fill="#FECAD0"/>
<path d="M605.173 48.7213C604.1 49.0347 602.908 51.9547 603.384 53.3267" stroke="#E45E8E" stroke-width="0.7" stroke-miterlimit="9" stroke-linecap="round"/>
<path d="M579.553 57.1529L578.064 56.2769C577.063 55.6876 576.656 54.4449 577.117 53.3769L579.553 47.7356" stroke="#E45E8E" stroke-width="0.7" stroke-miterlimit="9" stroke-linecap="round"/>
<path d="M584.932 50.4029C584.932 51.1443 585.407 51.7443 585.995 51.7443C586.582 51.7443 587.059 51.1443 587.059 50.4029C587.059 49.6616 586.582 49.0616 585.995 49.0616C585.407 49.0616 584.932 49.6616 584.932 50.4029Z" fill="black"/>
<path d="M572.147 49.6432C572.147 50.3832 572.623 50.9832 573.211 50.9832C573.798 50.9832 574.274 50.3832 574.274 49.6432C574.274 48.9019 573.798 48.3019 573.211 48.3019C572.623 48.3019 572.147 48.9019 572.147 49.6432Z" fill="black"/>
<path d="M590.508 43.1647C590.508 43.1647 587.815 40.1887 583.667 42.3153" stroke="#171C51" stroke-width="1.05067" stroke-miterlimit="10" stroke-linecap="round" stroke-linejoin="round"/>
<path d="M569.766 43.0423C569.766 43.0423 572.408 40.1236 576.655 42.8009" stroke="#171C51" stroke-width="1.05067" stroke-miterlimit="10" stroke-linecap="round" stroke-linejoin="round"/>
<path d="M576.76 49.9883C576.76 53.0029 574.316 55.4469 571.302 55.4469C568.287 55.4469 565.843 53.0029 565.843 49.9883C565.843 46.9736 568.287 44.5296 571.302 44.5296C574.316 44.5296 576.76 46.9736 576.76 49.9883Z" stroke="#587CF8" stroke-width="1.05067" stroke-miterlimit="10"/>
<path d="M591.901 49.9883C591.901 53.0029 589.457 55.4469 586.441 55.4469C583.428 55.4469 580.984 53.0029 580.984 49.9883C580.984 46.9736 583.428 44.5296 586.441 44.5296C589.457 44.5296 591.901 46.9736 591.901 49.9883Z" stroke="#587CF8" stroke-width="1.05067" stroke-miterlimit="10"/>
<path d="M576.607 48.7213C576.607 48.7213 578.915 46.5 581.136 48.7213" stroke="#587CF8" stroke-width="1.05067" stroke-miterlimit="10"/>
<path d="M581.137 62.028C581.137 62.028 584.609 63.4586 587.471 61.0146" stroke="#E45E8E" stroke-width="0.7" stroke-miterlimit="9" stroke-linecap="round"/>
<path d="M542.487 173.064H489.515L489.514 173.06C488.638 173.081 487.834 172.548 487.58 171.663L476.222 130.443C475.942 129.405 476.544 128.341 477.58 128.061L478.238 127.879H478.252C478.267 127.865 478.294 127.865 478.308 127.865H531.295L542.487 173.064Z" fill="#96A5CD"/>
<path d="M510.919 152.495C510.919 154.766 509.078 156.607 506.806 156.607C504.535 156.607 502.694 154.766 502.694 152.495C502.694 150.223 504.535 148.383 506.806 148.383C509.078 148.383 510.919 150.223 510.919 152.495Z" fill="#E6EAFD"/>
<path d="M542.487 173.066H584.534C585.596 173.066 586.458 172.205 586.458 171.144V170.43C586.458 169.369 585.596 168.508 584.534 168.508H542.487C541.424 168.508 540.564 169.369 540.564 170.43V171.144C540.564 172.205 541.424 173.066 542.487 173.066Z" fill="#7389BB"/>
<path d="M529.263 130.426L540.436 170.961C540.718 171.985 541.778 172.588 542.8 172.305L543.488 172.116C544.512 171.833 545.114 170.774 544.832 169.75L533.659 129.214C533.376 128.19 532.318 127.589 531.292 127.872L530.607 128.061C529.582 128.344 528.98 129.402 529.263 130.426Z" fill="#7389BB"/>
<path d="M652.535 184.871C652.535 190.039 650.267 195.039 646.149 198.443C640.098 203.43 631.485 203.794 625.027 199.354L595.571 179.087C595.571 179.087 579.549 182.602 572.335 181.944C565.121 181.286 557.431 177.476 557.375 175.991C557.305 174.492 586.397 171.454 585.025 170.262C583.651 169.071 570.669 168.959 570.486 166.158C570.303 163.356 573.581 162.404 579.002 162.04C584.437 161.676 591.341 164.422 591.341 164.422L620.826 168.511L612.45 144.084L610.179 137.487L633.431 120.61L634.945 125.511L651.751 179.688C652.285 181.398 652.535 183.148 652.535 184.871Z" fill="#FECAD0"/>
<path d="M633.431 120.609L634.944 125.512L612.45 144.084L610.18 137.487L633.431 120.609Z" fill="#EE84AA"/>
<path d="M620.818 168.507L633.424 170.206" stroke="#E45E8E" stroke-width="0.7" stroke-miterlimit="9" stroke-linecap="round"/>
<path d="M550.971 170.787C550.971 171.17 550.662 171.48 550.278 171.48C549.895 171.48 549.586 171.17 549.586 170.787C549.586 170.404 549.895 170.094 550.278 170.094C550.662 170.094 550.971 170.404 550.971 170.787Z" fill="#171C51"/>
<path d="M553.784 170.787C553.784 171.17 553.474 171.48 553.09 171.48C552.708 171.48 552.398 171.17 552.398 170.787C552.398 170.404 552.708 170.094 553.09 170.094C553.474 170.094 553.784 170.404 553.784 170.787Z" fill="#171C51"/>
<path d="M569.514 416.266L539.038 415.235C536.969 415.164 535.348 413.43 535.418 411.36L535.582 406.523C535.653 404.455 537.385 402.834 539.454 402.904L569.932 403.935C572.001 404.006 573.621 405.739 573.55 407.808L573.388 412.646C573.318 414.715 571.584 416.336 569.514 416.266Z" fill="#96A5CD"/>
<path d="M661.129 409.38L631.917 418.131C629.934 418.727 627.845 417.6 627.252 415.618L625.862 410.98C625.268 408.998 626.393 406.908 628.377 406.314L657.588 397.562C659.57 396.967 661.66 398.094 662.254 400.076L663.644 404.714C664.238 406.696 663.112 408.787 661.129 409.38Z" fill="#96A5CD"/>
<path d="M573.465 232.549L588.225 280.239" stroke="#171C51" stroke-width="0.7" stroke-miterlimit="10" stroke-linecap="round" stroke-linejoin="round"/>
<path d="M549.586 150.089C557.431 157.333 571.302 158.405 571.302 158.405" stroke="#171C51" stroke-width="0.7" stroke-miterlimit="10" stroke-linecap="round" stroke-linejoin="round"/>
<path d="M610.18 137.487L600.166 120.61" stroke="#171C51" stroke-width="0.7" stroke-miterlimit="10" stroke-linecap="round" stroke-linejoin="round"/>
<path d="M545.809 128.676C550.101 120.14 550.971 109.054 550.971 109.054" stroke="#171C51" stroke-width="0.7" stroke-miterlimit="10" stroke-linecap="round" stroke-linejoin="round"/>
<path d="M28.4987 456.029H728.705" stroke="#94A3D7" stroke-width="2.80133" stroke-miterlimit="10" stroke-linecap="round" stroke-linejoin="round"/>
<path d="M530.573 0.533181V56.8185L516.422 42.6838H462.209V0.533181H530.573Z" fill="white"/>
<path d="M480.646 11.9433H512.135" stroke="#587CF8" stroke-width="1.33333" stroke-miterlimit="10" stroke-linecap="round" stroke-linejoin="round"/>
<g opacity="0.25">
<path d="M485.858 18.4115H512.135" stroke="#587CF8" stroke-width="1.33333" stroke-miterlimit="10" stroke-linecap="round" stroke-linejoin="round"/>
</g>
<g opacity="0.25">
<path d="M480.646 24.8796H512.135" stroke="#587CF8" stroke-width="1.33333" stroke-miterlimit="10" stroke-linecap="round" stroke-linejoin="round"/>
</g>
<g opacity="0.25">
<path d="M490.057 31.3476H512.136" stroke="#587CF8" stroke-width="1.33333" stroke-miterlimit="10" stroke-linecap="round" stroke-linejoin="round"/>
</g>
<path d="M214.464 33.2362V89.5215L228.616 75.3855H282.829V33.2362H214.464Z" fill="white"/>
<path d="M264.391 44.6459H232.902" stroke="#FEB160" stroke-width="1.33333" stroke-miterlimit="10" stroke-linecap="round" stroke-linejoin="round"/>
<g opacity="0.25">
<path d="M259.179 51.1138H232.902" stroke="#587CF8" stroke-width="1.33333" stroke-miterlimit="10" stroke-linecap="round" stroke-linejoin="round"/>
</g>
<g opacity="0.25">
<path d="M264.391 57.582H232.902" stroke="#587CF8" stroke-width="1.33333" stroke-miterlimit="10" stroke-linecap="round" stroke-linejoin="round"/>
</g>
<g opacity="0.25">
<path d="M254.981 64.0501H232.902" stroke="#587CF8" stroke-width="1.33333" stroke-miterlimit="10" stroke-linecap="round" stroke-linejoin="round"/>
</g>
</svg>
