<svg width="581" height="548" viewBox="0 0 581 548" fill="none" xmlns="http://www.w3.org/2000/svg">
<path d="M171.068 87.8835C180.329 95.4849 181.557 109.246 173.813 118.622C166.069 127.996 152.284 129.433 143.024 121.832C133.763 114.229 132.535 100.468 140.279 91.0929C148.023 81.7182 161.808 80.2809 171.068 87.8835ZM173.656 76.6742C171.829 75.6155 169.929 74.7515 167.977 74.0862C167.964 74.2742 167.969 74.4609 167.936 74.6489C167.427 77.5755 164.648 79.5689 161.731 79.1035C158.812 78.6369 156.859 75.8902 157.369 72.9649C157.404 72.7582 157.477 72.5689 157.535 72.3715C155.429 72.3742 153.327 72.5782 151.256 72.9849C151.345 73.1622 151.448 73.3302 151.517 73.5222C152.536 76.2875 151.105 79.3875 148.323 80.4475C145.541 81.5075 142.461 80.1235 141.443 77.3569C141.364 77.1409 141.324 76.9195 141.275 76.6995C139.441 77.7449 137.693 78.9769 136.055 80.3929C136.243 80.5102 136.435 80.6169 136.609 80.7609C138.883 82.6262 139.184 86.0035 137.284 88.3022C135.383 90.6035 132 90.9569 129.728 89.0902C129.529 88.9275 129.364 88.7395 129.195 88.5542C128.075 90.4289 127.16 92.3835 126.448 94.3849C126.7 94.3889 126.952 94.3875 127.208 94.4289C130.125 94.8942 132.079 97.6422 131.568 100.568C131.06 103.492 128.28 105.486 125.363 105.021C125.085 104.976 124.825 104.893 124.567 104.809C124.532 106.966 124.707 109.117 125.095 111.23C125.332 111.097 125.569 110.964 125.831 110.862C128.612 109.804 131.693 111.188 132.711 113.953C133.728 116.718 132.297 119.818 129.516 120.878C129.235 120.985 128.949 121.05 128.664 121.109C129.705 122.962 130.941 124.725 132.371 126.369C132.515 126.126 132.661 125.885 132.847 125.66C134.748 123.358 138.131 123.008 140.403 124.872C142.675 126.738 142.977 130.114 141.076 132.414C140.883 132.649 140.664 132.852 140.443 133.044C142.328 134.14 144.296 135.024 146.316 135.7C146.32 135.42 146.328 135.14 146.377 134.854C146.887 131.929 149.665 129.936 152.584 130.401C155.503 130.865 157.455 133.614 156.945 136.54C156.895 136.826 156.807 137.096 156.715 137.364C158.872 137.353 161.025 137.129 163.144 136.694C163.017 136.465 162.889 136.237 162.796 135.982C161.779 133.217 163.208 130.117 165.991 129.057C168.772 127.997 171.852 129.381 172.871 132.146C172.963 132.398 173.015 132.656 173.068 132.912C174.908 131.844 176.663 130.585 178.304 129.141C178.1 129.017 177.893 128.9 177.704 128.744C175.431 126.877 175.129 123.501 177.031 121.2C178.931 118.901 182.313 118.548 184.585 120.412C184.771 120.565 184.923 120.742 185.081 120.912C186.173 119.044 187.064 117.101 187.755 115.113C187.539 115.104 187.324 115.11 187.105 115.076C184.188 114.61 182.235 111.861 182.745 108.937C183.255 106.013 186.033 104.018 188.952 104.482C189.167 104.518 189.363 104.588 189.567 104.646C189.583 102.541 189.396 100.442 189.008 98.3782C188.835 98.4675 188.671 98.5702 188.484 98.6409C185.701 99.6995 182.621 98.3169 181.603 95.5515C180.585 92.7862 182.016 89.6849 184.797 88.6262C184.988 88.5529 185.181 88.5195 185.375 88.4689C184.357 86.6809 183.155 84.9782 181.773 83.3875C181.672 83.5395 181.587 83.6995 181.467 83.8449C179.567 86.1449 176.184 86.4969 173.911 84.6315C171.639 82.7662 171.337 79.3889 173.237 77.0889C173.365 76.9342 173.515 76.8115 173.656 76.6742Z" fill="#FDC018"/>
<path d="M147.104 91.6349C154.487 86.0322 164.96 87.4122 170.452 94.7095C175.944 102.006 174.407 112.499 167.024 118.102C159.641 123.703 149.167 122.326 143.675 115.028C138.183 107.731 139.721 97.2362 147.104 91.6349ZM137.133 119.992C145.309 130.852 160.901 132.903 171.889 124.566C182.879 116.227 185.168 100.607 176.993 89.7469C168.817 78.8842 153.227 76.8309 142.239 85.1682C131.249 93.5069 128.96 109.13 137.133 119.992" fill="#FDC018"/>
<path d="M145.339 89.2898C154.03 82.6951 166.359 84.3178 172.824 92.9085C179.29 101.498 177.479 113.851 168.788 120.446C160.098 127.039 147.767 125.418 141.303 116.828C134.838 108.238 136.648 95.8831 145.339 89.2898Z" stroke="#292929" stroke-width="0.666667" stroke-miterlimit="10" stroke-linecap="round"/>
<path d="M225.993 77.7064C233.415 83.7998 234.4 94.8304 228.193 102.344C221.987 109.856 210.937 111.009 203.516 104.916C196.093 98.8238 195.108 87.7918 201.316 80.2798C207.523 72.7664 218.572 71.6144 225.993 77.7064ZM228.067 68.7238C226.604 67.8744 225.08 67.1825 223.516 66.6491C223.505 66.7998 223.509 66.9491 223.483 67.1011C223.075 69.4451 220.848 71.0424 218.508 70.6704C216.169 70.2971 214.604 68.0945 215.013 65.7491C215.043 65.5838 215.1 65.4318 215.145 65.2758C213.46 65.2771 211.773 65.4411 210.113 65.7665C210.185 65.9078 210.268 66.0425 210.324 66.1958C211.139 68.4118 209.993 70.8984 207.764 71.7464C205.533 72.5958 203.065 71.4878 202.249 69.2718C202.185 69.0971 202.155 68.9198 202.113 68.7438C200.645 69.5811 199.244 70.5691 197.931 71.7038C198.08 71.7971 198.235 71.8838 198.375 71.9984C200.196 73.4944 200.437 76.1998 198.915 78.0438C197.392 79.8878 194.681 80.1704 192.859 78.6758C192.7 78.5438 192.568 78.3931 192.432 78.2438C191.535 79.7478 190.801 81.3144 190.231 82.9184C190.433 82.9211 190.635 82.9198 190.84 82.9544C193.179 83.3264 194.744 85.5291 194.335 87.8731C193.927 90.2171 191.7 91.8158 189.36 91.4424C189.137 91.4064 188.929 91.3411 188.723 91.2744C188.695 93.0011 188.833 94.7264 189.145 96.4198C189.336 96.3118 189.525 96.2051 189.736 96.1238C191.965 95.2758 194.435 96.3851 195.249 98.6011C196.065 100.817 194.919 103.302 192.689 104.152C192.464 104.237 192.236 104.289 192.007 104.337C192.841 105.822 193.832 107.234 194.977 108.553C195.093 108.358 195.211 108.165 195.359 107.984C196.883 106.14 199.593 105.858 201.415 107.353C203.236 108.848 203.479 111.556 201.955 113.4C201.799 113.586 201.624 113.748 201.447 113.902C202.959 114.782 204.536 115.49 206.155 116.032C206.159 115.808 206.164 115.582 206.204 115.353C206.612 113.01 208.84 111.41 211.179 111.785C213.517 112.157 215.081 114.36 214.673 116.704C214.633 116.934 214.563 117.15 214.489 117.365C216.217 117.356 217.944 117.177 219.641 116.829C219.541 116.645 219.437 116.461 219.363 116.258C218.548 114.041 219.693 111.557 221.924 110.708C224.153 109.857 226.623 110.966 227.437 113.182C227.512 113.386 227.552 113.592 227.595 113.796C229.071 112.941 230.477 111.932 231.792 110.774C231.629 110.676 231.464 110.58 231.312 110.456C229.491 108.96 229.248 106.254 230.772 104.41C232.295 102.568 235.007 102.285 236.827 103.78C236.976 103.901 237.097 104.042 237.224 104.178C238.1 102.681 238.813 101.125 239.367 99.5304C239.193 99.5238 239.021 99.5291 238.848 99.5011C236.508 99.1278 234.944 96.9251 235.352 94.5811C235.76 92.2358 237.988 90.6384 240.327 91.0118C240.499 91.0398 240.656 91.0958 240.819 91.1424C240.832 89.4558 240.683 87.7731 240.372 86.1198C240.232 86.1904 240.101 86.2731 239.951 86.3291C237.721 87.1784 235.252 86.0691 234.437 83.8531C233.621 81.6358 234.768 79.1518 236.997 78.3011C237.151 78.2438 237.305 78.2171 237.46 78.1771C236.644 76.7424 235.68 75.3798 234.573 74.1038C234.492 74.2264 234.423 74.3531 234.327 74.4691C232.804 76.3131 230.093 76.5958 228.272 75.1011C226.451 73.6064 226.209 70.8998 227.732 69.0558C227.835 68.9318 227.955 68.8331 228.067 68.7238Z" fill="#FDC018"/>
<path d="M206.786 80.713C212.702 76.2236 221.098 77.329 225.499 83.1783C229.9 89.0263 228.668 97.437 222.751 101.926C216.835 106.416 208.439 105.312 204.038 99.4636C199.635 93.6156 200.87 85.2036 206.786 80.713ZM198.795 103.441C205.347 112.146 217.843 113.792 226.651 107.108C235.459 100.424 237.294 87.9063 230.742 79.1996C224.19 70.4943 211.694 68.849 202.886 75.5316C194.079 82.2156 192.243 94.7356 198.795 103.441Z" fill="#FDC018"/>
<path d="M205.371 78.834C212.336 73.5487 222.219 74.85 227.4 81.7354C232.583 88.6194 231.131 98.5207 224.165 103.806C217.2 109.09 207.317 107.791 202.136 100.906C196.955 94.022 198.405 84.1194 205.371 78.834Z" stroke="#292929" stroke-width="0.666667" stroke-miterlimit="10" stroke-linecap="round"/>
<path d="M165.619 258.609C163.724 259.181 162.331 261.857 162.331 261.857C162.331 261.857 160.927 259.203 159.03 258.663C153.534 257.098 151.078 262.055 153.182 266.63C155.211 271.041 162.363 276.35 162.363 276.35C162.363 276.35 169.49 270.922 171.5 266.475C173.584 261.867 171.107 256.953 165.619 258.609Z" fill="#FFDED5"/>
<path d="M139.761 253.432C138.551 253.797 137.66 255.509 137.66 255.509C137.66 255.509 136.763 253.812 135.551 253.466C132.039 252.466 130.469 255.634 131.813 258.558C133.111 261.377 137.68 264.77 137.68 264.77C137.68 264.77 142.235 261.301 143.52 258.46C144.852 255.514 143.269 252.373 139.761 253.432Z" fill="#FFDED5"/>
<path d="M156.239 227.881C154.343 228.454 152.951 231.13 152.951 231.13C152.951 231.13 151.545 228.476 149.648 227.936C144.153 226.372 141.697 231.328 143.801 235.902C145.831 240.314 152.983 245.624 152.983 245.624C152.983 245.624 160.109 240.196 162.12 235.749C164.204 231.14 161.727 226.225 156.239 227.881Z" fill="#FFDED5"/>
<path d="M540.364 337.134L523.786 359.714" stroke="black" stroke-width="0.666667" stroke-miterlimit="10"/>
<path d="M525.906 364.653L532.246 356.062" stroke="black" stroke-width="0.666667" stroke-miterlimit="10"/>
<path d="M118.749 442.212L119.596 435.665L125.326 438.16L126.914 431.377L132.872 434.21L134.197 427.413L140.412 429.96L141.92 423.22" stroke="black" stroke-width="0.666667" stroke-miterlimit="10"/>
<path d="M362.698 251.242C363.572 253.972 362.256 257.214 359.073 258.131C356.28 258.936 354.478 258.984 352.278 261.491C350.829 263.14 349.924 265.603 348.081 266.787C346.444 267.84 344.097 268.043 342.981 266.107C342.288 264.906 342.492 263.362 343.09 262.11C343.689 260.859 344.634 259.814 345.464 258.702C346.854 256.834 347.933 254.752 349.253 252.832C350.572 250.914 352.197 249.112 354.312 248.14C356.429 247.168 359.116 247.182 360.922 248.652C361.801 249.366 362.388 250.271 362.698 251.242Z" stroke="black" stroke-width="0.666667" stroke-miterlimit="10"/>
<path d="M366.581 237.79C366.581 239.438 365.245 240.774 363.596 240.774C361.947 240.774 360.611 239.438 360.611 237.79C360.611 236.142 361.947 234.806 363.596 234.806C365.245 234.806 366.581 236.142 366.581 237.79Z" fill="black"/>
<path d="M141.397 460.249C141.397 462.433 139.627 464.204 137.443 464.204C135.259 464.204 133.488 462.433 133.488 460.249C133.488 458.065 135.259 456.295 137.443 456.295C139.627 456.295 141.397 458.065 141.397 460.249Z" fill="black"/>
<path d="M518.169 104.429C516.866 105.933 514.592 106.096 513.088 104.793C511.585 103.492 511.421 101.217 512.724 99.7131C514.026 98.2091 516.301 98.0464 517.805 99.3478C519.308 100.65 519.472 102.925 518.169 104.429Z" fill="black"/>
<path d="M107.236 127.19C104.244 127.19 101.82 124.766 101.82 121.774C101.82 118.782 104.244 116.356 107.236 116.356" fill="black"/>
<path d="M183.421 155.295C187.304 155.295 190.45 158.442 190.45 162.324C190.45 166.208 187.304 169.355 183.421 169.355" stroke="black" stroke-width="0.666667" stroke-miterlimit="10"/>
<path d="M351.205 364.498L348.465 355.961L357.18 356.542L354.939 347.341L364.4 346.927L361.372 338.774" stroke="black" stroke-width="0.666667" stroke-miterlimit="10"/>
<path d="M43.9229 459.679C44.3549 459.214 44.8229 458.763 45.3189 458.32C47.8109 456.107 50.6922 454.32 52.9189 451.842C54.7776 449.771 56.1296 447.248 56.8242 444.554C57.4909 441.974 57.7189 438.964 59.8149 437.318C61.3282 436.128 63.5389 436.034 65.2776 436.859C70.0229 439.112 69.9162 446.308 68.1642 450.519C67.2282 452.767 65.6376 454.676 64.5056 456.831C61.0256 463.458 59.7576 474.096 50.2829 475.128C46.2349 475.568 42.6949 473.591 41.3469 469.69C39.9842 465.748 41.3122 462.487 43.9229 459.679Z" stroke="black" stroke-width="0.666667" stroke-miterlimit="10"/>
<path d="M363.48 437.249C363.149 431.399 366.512 425.896 366.677 420.04C366.765 416.907 365.933 413.833 365.422 410.741C364.91 407.649 364.744 404.345 366.073 401.508C367.404 398.669 370.629 396.52 373.654 397.337C376.898 398.215 378.501 401.863 379.093 405.169C379.752 408.844 379.713 412.643 378.982 416.303C378.05 420.967 376 425.495 376.228 430.244C376.39 433.665 377.738 436.975 377.662 440.397C377.577 444.284 374.225 449.289 369.884 447.915C366.017 446.692 363.685 440.884 363.48 437.249Z" stroke="black" stroke-width="0.666667" stroke-miterlimit="10"/>
<path d="M417.186 85.1843C417.186 73.0403 393.999 63.195 365.397 63.195C336.795 63.195 313.607 73.0403 313.607 85.1843C313.607 94.267 324.843 99.383 331.951 101.974C348.17 107.883 369.745 108.492 386.653 105.236C396.27 103.383 417.186 98.287 417.186 85.1843Z" fill="#FDC018"/>
<path d="M352.704 82.0254C350.752 83.7161 349.525 85.9987 349.359 88.3321C349.333 88.7001 349.331 89.1201 349.505 89.4494C349.665 89.7481 349.937 89.9307 350.313 89.9921C350.973 90.1001 351.857 89.7961 352.411 89.2734C353.427 88.3121 353.928 86.9041 353.824 85.3094C353.748 84.1321 353.344 82.9814 352.704 82.0254ZM368.828 82.1174C366.263 83.9161 364.167 86.5067 364.271 89.5974C364.288 90.1081 364.403 90.7827 364.852 91.0921C365.076 91.2467 365.323 91.2921 365.604 91.2334C366.297 91.0881 367.031 90.3387 367.448 89.6614C368.776 87.5081 369.759 84.4747 368.828 82.1174M382.031 81.8787C381.456 82.4241 380.939 83.0547 380.495 83.7601C379.096 85.9854 378.679 88.5587 379.353 90.8241C379.541 91.4547 379.791 91.8201 380.115 91.9387C380.665 92.1401 381.311 91.5787 381.564 91.3267C383.448 89.4454 384.119 86.4974 383.233 83.9854C382.961 83.2147 382.548 82.5014 382.031 81.8787M380.364 92.7187C380.191 92.7187 380.023 92.6894 379.86 92.6294C379.304 92.4254 378.907 91.9027 378.648 91.0347C377.913 88.5654 378.36 85.7721 379.872 83.3681C380.351 82.6067 380.909 81.9254 381.532 81.3361C380.403 80.2267 378.915 79.4854 377.327 79.3161C375.623 79.1321 373.768 79.5401 371.483 80.5947C370.804 80.9067 370.117 81.2774 369.452 81.7014C370.577 84.3307 369.529 87.6907 368.075 90.0467C367.589 90.8347 366.724 91.7507 365.756 91.9547C365.279 92.0547 364.821 91.9667 364.433 91.6987C363.871 91.3107 363.568 90.6121 363.535 89.6227C363.42 86.2041 365.719 83.3761 368.5 81.4494C368.349 81.1961 368.171 80.9521 367.961 80.7227C366.776 79.4161 364.78 78.7894 362.056 78.8414C358.824 78.9134 355.951 79.7374 353.745 81.2267C353.587 81.3347 353.429 81.4467 353.277 81.5614C354.009 82.6361 354.472 83.9347 354.559 85.2614C354.677 87.0787 354.095 88.6934 352.917 89.8081C352.187 90.4974 351.093 90.8614 350.195 90.7187C349.589 90.6187 349.125 90.3014 348.856 89.7974C348.591 89.3001 348.593 88.7254 348.624 88.2801C348.805 85.7374 350.14 83.2587 352.259 81.4374C351.961 81.0894 351.631 80.7801 351.269 80.5187C348.748 78.6934 344.887 78.5734 341.433 80.2161C338.311 81.7001 335.827 84.2427 333.347 86.9387L332.805 86.4401C335.335 83.6881 337.875 81.0907 341.117 79.5507C344.811 77.7947 348.964 77.9414 351.701 79.9227C352.115 80.2214 352.493 80.5774 352.832 80.9761C352.995 80.8521 353.163 80.7321 353.333 80.6161C355.655 79.0494 358.667 78.1801 362.04 78.1067C364.993 78.0481 367.172 78.7561 368.507 80.2281C368.741 80.4881 368.944 80.7601 369.116 81.0441C369.791 80.6174 370.487 80.2427 371.175 79.9254C373.585 78.8134 375.565 78.3881 377.405 78.5827C379.175 78.7721 380.835 79.6067 382.085 80.8507C383.315 79.8481 384.745 79.1841 386.252 78.9427C388.793 78.5347 391.507 79.3427 393.695 81.1574C395.88 82.9694 397.176 85.4854 397.248 88.0574L396.511 88.0787C396.447 85.7187 395.248 83.4014 393.224 81.7241C391.2 80.0467 388.701 79.2987 386.368 79.6694C385.005 79.8881 383.705 80.4894 382.584 81.3947C383.163 82.0881 383.624 82.8814 383.927 83.7401C384.905 86.5121 384.164 89.7721 382.084 91.8481C381.509 92.4214 380.915 92.7187 380.364 92.7187" fill="#1B203F"/>
<path d="M367.56 98.6661C367.3 105.403 367.065 112.325 369.276 118.694C372.869 129.053 383.274 136.658 394.233 136.938C391.232 136.047 388.608 134.181 386.302 132.062C381.684 127.818 378.084 122.358 376.56 116.273C375.036 110.189 375.7 103.478 378.88 98.0727" fill="#FDC018"/>
<path d="M325.172 509.88C325.32 510.354 325.481 510.852 325.864 511.213C326.289 511.618 326.909 511.774 327.493 511.908C332.548 513.072 337.652 513.982 342.774 514.637C341.153 501.624 341.68 488.254 336.504 475.817C335.738 473.98 334.826 472.137 333.352 470.677C330.917 468.264 327.138 467.202 323.742 467.61C321.049 467.934 315.71 469.836 314.968 472.522C314.156 475.464 317.182 481.848 317.994 484.918C320.204 493.27 322.597 501.593 325.172 509.88Z" fill="white"/>
<path d="M325.172 509.88C325.32 510.354 325.481 510.852 325.864 511.213C326.289 511.618 326.909 511.774 327.493 511.908C332.548 513.072 337.652 513.982 342.774 514.637C341.153 501.624 341.68 488.254 336.504 475.817C335.738 473.98 334.826 472.137 333.352 470.677C330.917 468.264 327.138 467.202 323.742 467.61C321.049 467.934 315.71 469.836 314.968 472.522C314.156 475.464 317.182 481.848 317.994 484.918C320.204 493.27 322.597 501.593 325.172 509.88Z" stroke="black" stroke-width="0.666667" stroke-miterlimit="10"/>
<path d="M362.805 526.512C357.416 525.862 352.018 525.286 346.61 524.786C342.045 524.363 337.462 524.127 332.916 523.519C329.693 523.088 326.356 522.499 323.273 521.335C321.322 520.598 322.573 515.966 322.856 514.672C323.528 511.595 323.5 508.224 323.37 505.09C328.562 505.003 333.761 504.912 338.941 504.712C339.902 504.675 340.892 504.643 341.801 504.962C343.006 505.386 343.913 506.371 344.849 507.242C348.64 510.77 372.029 518.623 370.726 525.155C370.37 526.946 367.913 527.148 366.1 526.919C365.002 526.779 363.904 526.644 362.805 526.512Z" fill="#100909"/>
<path d="M260.381 511.88C260.325 512.349 260.26 512.841 259.947 513.193C259.597 513.588 259.005 513.732 258.445 513.854C253.599 514.914 248.652 515.725 243.635 516.28C242.729 503.35 239.599 490.026 242.375 477.74C242.784 475.924 243.341 474.106 244.537 472.68C246.512 470.324 250.099 469.338 253.588 469.81C256.355 470.185 262.084 472.181 263.353 474.87C264.74 477.814 262.945 484.114 262.728 487.158C262.136 495.433 261.353 503.676 260.381 511.88Z" fill="white"/>
<path d="M260.381 511.88C260.325 512.349 260.26 512.841 259.947 513.193C259.597 513.588 259.005 513.732 258.445 513.854C253.599 514.914 248.652 515.725 243.635 516.28C242.729 503.35 239.599 490.026 242.375 477.74C242.784 475.924 243.341 474.106 244.537 472.68C246.512 470.324 250.099 469.338 253.588 469.81C256.355 470.185 262.084 472.181 263.353 474.87C264.74 477.814 262.945 484.114 262.728 487.158C262.136 495.433 261.353 503.676 260.381 511.88Z" stroke="black" stroke-width="0.666667" stroke-miterlimit="10"/>
<path d="M262.163 143.167C262.227 143.615 262.296 144.062 262.368 144.509C263.495 151.431 260.823 158.658 262.202 165.821C263.178 170.894 267.502 180.982 273.73 181.642C275.316 181.81 276.906 179.707 277.779 178.637C280.67 175.089 282.992 170.911 283.49 166.362C283.73 164.161 283.539 161.938 283.347 159.733C283.072 156.559 282.796 153.386 282.522 150.214C282.391 148.725 282.262 147.231 281.951 145.769C281.388 143.129 280.219 140.597 278.426 138.581C274.722 134.415 269.318 134.082 264.083 133.983C263.491 133.973 262.862 133.986 262.364 134.306C261.406 134.923 261.4 136.299 261.506 137.433C261.684 139.359 261.89 141.269 262.163 143.167Z" fill="white"/>
<path d="M262.163 143.167C262.227 143.615 262.296 144.062 262.368 144.509C263.495 151.431 260.823 158.658 262.202 165.821C263.178 170.894 267.502 180.982 273.73 181.642C275.316 181.81 276.906 179.707 277.779 178.637C280.67 175.089 282.992 170.911 283.49 166.362C283.73 164.161 283.539 161.938 283.347 159.733C283.072 156.559 282.796 153.386 282.522 150.214C282.391 148.725 282.262 147.231 281.951 145.769C281.388 143.129 280.219 140.597 278.426 138.581C274.722 134.415 269.318 134.082 264.083 133.983C263.491 133.973 262.862 133.986 262.364 134.306C261.406 134.923 261.4 136.299 261.506 137.433C261.684 139.359 261.89 141.269 262.163 143.167Z" stroke="black" stroke-width="0.666667" stroke-miterlimit="10"/>
<path d="M274.372 150.152C271.069 151.146 262.44 152.49 262.44 152.49C262.516 150.793 262.775 147.67 262.625 145.977C262.605 145.75 262.403 144.304 262.203 143.022C262.032 141.929 261.861 140.956 261.805 140.97C262.563 140.77 263.369 140.412 263.96 139.886C264.324 139.561 264.577 139.128 264.948 138.79C267.303 136.633 270.771 136.14 273.707 137.305C275.425 137.988 276.893 139.186 278.021 140.64C278.7 141.513 279.259 142.474 279.713 143.48C280.193 144.537 280.835 145.908 280.907 147.077C280.907 147.089 280.948 147.393 281.015 147.897C278.824 148.714 276.613 149.477 274.372 150.152Z" fill="black"/>
<path d="M285.008 129.309C286.362 125.108 291.036 126.837 292.057 130.295C292.581 132.067 292.098 134.103 290.834 135.451C289.913 136.436 288.481 137.059 287.192 136.66" fill="white"/>
<path d="M285.008 129.309C286.362 125.108 291.036 126.837 292.057 130.295C292.581 132.067 292.098 134.103 290.834 135.451C289.913 136.436 288.481 137.059 287.192 136.66" stroke="black" stroke-width="0.666667" stroke-miterlimit="10"/>
<path d="M284.311 114.455C281.682 113.051 274.568 118.066 271.595 118.439C268.67 119.09 264.108 119.828 262.047 121.982C257.684 126.54 258.492 134.463 261.24 140.019C261.7 140.948 262.655 143.318 263.207 144.198C267.615 151.206 275.779 151.828 279.875 150.839C284.771 149.655 287.428 145.571 288.256 139.854C288.406 138.826 288.443 135.476 288.459 134.438C288.559 128.068 287.078 115.931 284.311 114.455Z" fill="white"/>
<path d="M284.311 114.455C281.682 113.051 274.568 118.066 271.595 118.439C268.67 119.09 264.108 119.828 262.047 121.982C257.684 126.54 258.492 134.463 261.24 140.019C261.7 140.948 262.655 143.318 263.207 144.198C267.615 151.206 275.779 151.828 279.875 150.839C284.771 149.655 287.428 145.571 288.256 139.854C288.406 138.826 288.443 135.476 288.459 134.438C288.559 128.068 287.078 115.931 284.311 114.455Z" stroke="black" stroke-width="0.666667" stroke-miterlimit="10"/>
<path d="M283.361 110.576C280.62 108.931 277.425 108.161 274.102 107.753C271.741 107.461 269.332 107.297 266.992 107.735C263.78 108.333 260.798 110.096 258.722 112.619C255.792 116.183 254.922 121.025 255.712 125.484C256.272 128.649 257.469 133.601 260.782 135.019C262.812 135.887 264.158 135.111 264.501 132.985C264.898 130.516 264.449 127.881 264.732 125.353C264.769 125.021 264.817 124.667 265.042 124.42C265.296 124.141 265.704 124.076 266.077 124.021C271.709 123.191 276.566 120.587 281.058 117.179C281.972 118.352 283.328 119.171 284.793 119.436C285.598 119.58 286.862 119.679 287.602 119.297C288.424 118.876 288.817 117.865 288.733 116.945C288.65 116.027 288.174 115.188 287.625 114.445C286.4 112.791 284.957 111.535 283.361 110.576Z" fill="black"/>
<path d="M281.989 114.558C284.379 112.743 287.528 115.079 288.437 117.282C289.497 119.85 289.251 122.858 289.085 125.565C288.988 127.149 289.077 129.027 288.872 130.689C288.757 129.686 288.631 128.685 288.461 127.689C288.152 125.882 287.688 123.438 286.532 121.694C286.212 120.691 285.632 119.749 284.717 119.243C284.049 118.873 283.259 118.759 282.607 118.363C282.036 118.015 281.599 117.455 281.401 116.817C281.156 116.026 281.329 115.059 281.989 114.558Z" fill="black"/>
<path d="M263.438 137.805C262.126 139.697 259.859 139.949 258.232 138.365C254.923 135.141 256.307 126.864 262.166 128.531C263.763 128.984 264.77 130.512 265.635 131.929" fill="white"/>
<path d="M263.438 137.805C262.126 139.697 259.859 139.949 258.232 138.365C254.923 135.141 256.307 126.864 262.166 128.531C263.763 128.984 264.77 130.512 265.635 131.929" stroke="black" stroke-width="0.666667" stroke-miterlimit="10"/>
<path d="M232.004 358.009C231.444 337.793 231.02 318.27 234.215 298.178C235.584 289.565 242.702 259.854 253.503 258.237C254.162 258.139 254.676 258.195 255.143 258.306C255.708 255.285 256.866 252.443 258.483 249.847C263.194 242.275 271.743 236.75 280.491 234.678C290.195 232.381 302.026 233.699 306.294 244.885C308.479 250.613 307.971 256.438 310.576 261.979C317.936 277.625 318.882 293.158 321.072 310.387C323.659 330.741 326.348 351.081 329.139 371.406C334.44 410.027 340.118 448.597 346.147 487.111C342.14 488.077 338.084 488.834 333.983 489.298C326.858 490.103 319.699 489.902 312.594 489.074C305.65 454.053 298.234 419.126 290.324 384.311C286.367 366.887 283.407 358.017 279.316 341.471C278.879 345.713 278.422 349.953 277.946 354.19C276.256 369.207 274.95 384.266 272.782 399.227C268.38 429.582 267.028 460.55 268.236 491.369C261.519 491.643 248.242 491.127 241.808 490.669C240.846 490.599 233.691 489.654 233.61 488.757C231.419 464.489 231.503 444.985 230.996 419.501C230.615 400.343 232.526 376.793 232.004 358.009Z" fill="#FDC018"/>
<path d="M272.827 139.208C273.019 140.702 275.204 141.833 277.86 141.756Z" fill="white"/>
<path d="M272.827 139.208C273.019 140.702 275.204 141.833 277.86 141.756" stroke="black" stroke-width="0.666667" stroke-miterlimit="10"/>
<path d="M220.07 175.964C220.849 174.483 221.783 173.059 222.898 171.704C228.782 164.538 237.562 161.744 246.493 160.857C251.57 160.353 256.723 160.775 261.63 159.202C261.773 160.628 261.974 162.072 262.538 163.392C264.285 167.48 269.345 168.415 273.73 168.382C278.174 168.348 282.867 164.607 283.21 159.677C288.242 160.509 293.409 160.212 298.442 161.031C302.427 161.678 306.547 163.172 309.415 166.124C312.649 169.452 315.505 173.494 317.886 177.475C318.554 178.59 319.199 179.718 319.834 180.844C329.329 197.68 334.134 215.08 328.237 233.847C326.974 237.866 325.257 242.127 321.635 244.279C320.055 245.218 318.227 245.632 316.386 245.623C318.881 245.635 317.825 259.17 319.427 280.762C291.085 279.759 262.73 279.09 234.371 278.755C235.29 271.415 236.207 264.075 237.125 256.735C237.882 250.674 239.526 246.418 235.482 241.699C227.099 231.92 220.969 220.007 218.114 207.403C216.622 200.812 216.102 193.908 216.843 187.184C217.283 183.182 218.257 179.414 220.07 175.964Z" fill="#3364AC"/>
<path d="M285.129 226.779C282.717 224.649 280.392 222.523 278.133 220.229C276.199 218.262 274.131 216.109 271.613 214.869C264.296 214.59 256.875 214.59 249.985 216.975C241.801 219.809 233.968 227.402 233.676 236.529C233.42 244.546 242.952 245.914 249.007 245.766C254.128 245.642 259.141 244.359 264.101 243.083C273.101 240.767 282.101 238.453 291.101 236.138C292.276 235.835 293.457 235.558 294.637 235.281C291.407 232.519 288.313 229.59 285.129 226.779Z" fill="white"/>
<path d="M285.129 226.779C282.717 224.649 280.392 222.523 278.133 220.229C276.199 218.262 274.131 216.109 271.613 214.869C264.296 214.59 256.875 214.59 249.985 216.975C241.801 219.809 233.968 227.402 233.676 236.529C233.42 244.546 242.952 245.914 249.007 245.766C254.128 245.642 259.141 244.359 264.101 243.083C273.101 240.767 282.101 238.453 291.101 236.138C292.276 235.835 293.457 235.558 294.637 235.281C291.407 232.519 288.313 229.59 285.129 226.779Z" stroke="#1C1C1B" stroke-width="0.666667" stroke-miterlimit="10"/>
<path d="M330.67 223.722C327.67 220.286 323.435 217.879 318.888 217.311C312.059 216.458 304.791 217.249 297.879 216.837C289.884 216.361 281.888 215.893 273.886 215.537C275.196 216.545 276.408 217.695 277.579 218.861C279.9 221.175 282.18 223.449 284.656 225.601C288.604 229.033 292.38 232.689 296.399 236.041C300.778 235.059 305.175 234.186 309.547 233.277C313.57 232.441 317.86 232.042 321.143 232.987C323.362 233.626 325.031 234.831 326.391 236.674C326.908 237.375 327.738 238.187 327.915 239.063C328.184 240.393 327.26 241.897 327.204 243.239C327.198 243.418 327.202 243.606 327.287 243.763C327.464 244.089 327.898 244.157 328.267 244.149C331.958 244.066 333.023 238.195 332.664 235.287C332.862 236.889 333.17 238.477 333.359 240.078C333.454 240.887 332.936 243.138 333.576 243.702C333.843 243.939 334.236 243.606 334.41 243.293C335.312 241.654 335.259 239.55 335.296 237.723C335.398 232.578 334.05 227.593 330.67 223.722Z" fill="white"/>
<path d="M330.67 223.722C327.67 220.286 323.435 217.879 318.888 217.311C312.059 216.458 304.791 217.249 297.879 216.837C289.884 216.361 281.888 215.893 273.886 215.537C275.196 216.545 276.408 217.695 277.579 218.861C279.9 221.175 282.18 223.449 284.656 225.601C288.604 229.033 292.38 232.689 296.399 236.041C300.778 235.059 305.175 234.186 309.547 233.277C313.57 232.441 317.86 232.042 321.143 232.987C323.362 233.626 325.031 234.831 326.391 236.674C326.908 237.375 327.738 238.187 327.915 239.063C328.184 240.393 327.26 241.897 327.204 243.239C327.198 243.418 327.202 243.606 327.287 243.763C327.464 244.089 327.898 244.157 328.267 244.149C331.958 244.066 333.023 238.195 332.664 235.287C332.862 236.889 333.17 238.477 333.359 240.078C333.454 240.887 332.936 243.138 333.576 243.702C333.843 243.939 334.236 243.606 334.41 243.293C335.312 241.654 335.259 239.55 335.296 237.723C335.398 232.578 334.05 227.593 330.67 223.722Z" stroke="#1C1C1B" stroke-width="0.666667" stroke-miterlimit="10"/>
<path d="M332.737 236.798C332.72 235.063 332.353 233.726 331.977 232.046C331.72 230.887 331.264 230.556 330.712 229.508" fill="white"/>
<path d="M332.737 236.798C332.72 235.063 332.353 233.726 331.977 232.046C331.72 230.887 331.264 230.556 330.712 229.508" stroke="#1C1C1B" stroke-width="0.666667" stroke-miterlimit="10"/>
<path d="M328.372 244.202C330.3 240.804 330.767 236.608 329.635 232.868C329.291 231.734 328.971 231.302 328.511 230.212" fill="white"/>
<path d="M328.372 244.202C330.3 240.804 330.767 236.608 329.635 232.868C329.291 231.734 328.971 231.302 328.511 230.212" stroke="#1C1C1B" stroke-width="0.666667" stroke-miterlimit="10"/>
<path d="M286.325 238.7C287.024 239.169 287.729 239.629 288.444 240.075C290.91 241.612 293.497 242.619 296.106 243.84C304.352 247.703 312.798 247.351 321.366 245.165C330.213 242.905 328.117 233.172 323.042 227.867C319.634 224.304 315.02 222.157 310.393 220.455C299.413 216.416 287.941 215.575 276.738 212.612C266.472 209.895 254.557 207.289 244.67 212.653C242.642 213.752 241 215.492 239.888 217.503C239.304 218.559 238.758 219.671 238.45 220.841C238.232 221.671 238.193 222.395 238.229 223.233C238.254 223.844 238.492 224.443 238.286 225.037C239.765 223.813 240.6 222.753 242.362 221.839C244.452 220.755 246.54 219.672 248.628 218.588C248.845 218.475 249.074 218.36 249.318 218.363C249.528 218.367 249.724 218.456 249.914 218.544C260.602 223.517 271.341 228.52 281.112 235.116C282.86 236.296 284.574 237.524 286.325 238.7Z" fill="white"/>
<path d="M286.325 238.7C287.024 239.169 287.729 239.629 288.444 240.075C290.91 241.612 293.497 242.619 296.106 243.84C304.352 247.703 312.798 247.351 321.366 245.165C330.213 242.905 328.117 233.172 323.042 227.867C319.634 224.304 315.02 222.157 310.393 220.455C299.413 216.416 287.941 215.575 276.738 212.612C266.472 209.895 254.557 207.289 244.67 212.653C242.642 213.752 241 215.492 239.888 217.503C239.304 218.559 238.758 219.671 238.45 220.841C238.232 221.671 238.193 222.395 238.229 223.233C238.254 223.844 238.492 224.443 238.286 225.037C239.765 223.813 240.6 222.753 242.362 221.839C244.452 220.755 246.54 219.672 248.628 218.588C248.845 218.475 249.074 218.36 249.318 218.363C249.528 218.367 249.724 218.456 249.914 218.544C260.602 223.517 271.341 228.52 281.112 235.116C282.86 236.296 284.574 237.524 286.325 238.7Z" stroke="#1C1C1B" stroke-width="0.666667" stroke-miterlimit="10"/>
<path d="M249.723 218.365C248.723 218.065 247.723 217.767 246.723 217.467" stroke="#1C1C1B" stroke-width="0.666667" stroke-miterlimit="10"/>
<path d="M236.936 237.258C236.92 238.673 237.823 240.056 239.123 240.61Z" fill="white"/>
<path d="M236.936 237.258C236.92 238.673 237.823 240.056 239.123 240.61" stroke="#1C1C1B" stroke-width="0.666667" stroke-miterlimit="10"/>
<path d="M324.916 239.814C323.8 241.318 322.11 242.386 320.272 242.745Z" fill="white"/>
<path d="M324.916 239.814C323.8 241.318 322.11 242.386 320.272 242.745" stroke="#1C1C1B" stroke-width="0.666667" stroke-miterlimit="10"/>
<path d="M318.432 243.445C317.515 243.613 316.596 243.782 315.679 243.951Z" fill="white"/>
<path d="M318.432 243.445C317.515 243.613 316.596 243.782 315.679 243.951" stroke="#1C1C1B" stroke-width="0.666667" stroke-miterlimit="10"/>
<path d="M263.057 524.826C262.936 524.861 262.801 524.883 262.669 524.907C261.63 524.919 260.593 524.953 259.556 524.994C259.289 524.997 259.028 525.007 258.772 525.027C257.532 525.085 256.293 525.154 255.054 525.242C245.397 525.935 235.521 527.505 225.994 527.687C222.665 527.753 219.164 527.666 216.144 526.599C208.349 523.845 217.849 520.23 220.94 518.631C224.185 516.954 227.001 515.374 230.466 513.969C234.861 512.187 239.086 509.99 243.068 507.411C248.628 508.643 254.348 509.143 260.037 508.895C262.956 508.766 267.297 523.59 263.057 524.826Z" fill="#100909"/>
<path d="M305.416 216.533C304.691 206.727 303.004 196.135 299.743 186.859" stroke="black" stroke-width="0.666667" stroke-miterlimit="10"/>
<path d="M248.827 210.395C247.403 202.577 245.978 194.758 244.552 186.939" stroke="black" stroke-width="0.666667" stroke-miterlimit="10"/>
<path d="M278.851 345.032C280.017 329.787 281.182 314.543 282.346 299.299" stroke="#081132" stroke-width="0.666667" stroke-miterlimit="10"/>
<path d="M259.59 131.452C260.765 131.266 262.014 131.62 262.917 132.395C263.82 133.17 264.36 134.351 264.353 135.54" fill="white"/>
<path d="M259.59 131.452C260.765 131.266 262.014 131.62 262.917 132.395C263.82 133.17 264.36 134.351 264.353 135.54" stroke="black" stroke-width="0.666667" stroke-miterlimit="10"/>
<path d="M310.643 381.428C311.704 384.712 314.082 388.23 317.532 388.186C319.776 388.158 321.766 386.509 322.754 384.494C323.743 382.478 323.89 380.157 323.808 377.914C323.218 361.781 306.042 367.19 310.643 381.428Z" fill="black"/>
<path d="M248.344 384.859C247.924 386.695 247.708 388.643 248.265 390.441C248.823 392.24 250.307 393.851 252.176 394.083C253.963 394.305 255.668 393.273 257.007 392.068C259.608 389.729 261.455 386.563 262.209 383.148C262.688 380.987 262.713 378.625 261.689 376.663C256.235 366.2 249.496 379.82 248.344 384.859Z" fill="black"/>
<path d="M235.697 298.416L235.608 295.055C242.822 294.86 247.324 293.715 248.984 288.436C249.674 286.239 249.358 283.824 248.157 282.132C247.085 280.623 245.281 279.575 243.21 279.256C241.301 278.965 239.173 279.277 237.053 280.161L235.758 277.055C238.449 275.935 241.2 275.545 243.721 275.932C246.688 276.388 249.304 277.937 250.898 280.183C252.725 282.755 253.209 286.217 252.193 289.444C249.488 298.044 240.517 298.287 235.697 298.416Z" fill="#EF7273"/>
<path d="M240.289 301.869H216.978L215.857 270.508H241.41L240.289 301.869Z" fill="#EF7273"/>
<path d="M238.353 276.122V289.872Z" fill="#5377EC"/>
<path d="M238.353 276.122V289.872" stroke="black" stroke-width="0.666667" stroke-miterlimit="10"/>
<path d="M238.159 292.19V295.287Z" fill="#5377EC"/>
<path d="M238.159 292.19V295.287" stroke="black" stroke-width="0.666667" stroke-miterlimit="10"/>
<path d="M329.217 298.981L329.143 296.537C335.066 296.397 338.762 295.562 340.126 291.725C340.693 290.126 340.433 288.37 339.446 287.14C338.566 286.044 337.085 285.282 335.385 285.05C333.818 284.838 332.07 285.064 330.329 285.708L329.267 283.45C331.475 282.634 333.734 282.35 335.803 282.632C338.239 282.964 340.387 284.09 341.697 285.724C343.197 287.593 343.594 290.112 342.759 292.457C340.539 298.712 333.174 298.888 329.217 298.981Z" fill="black"/>
<path d="M307.32 279.731L307.94 291.448C308.187 296.108 311.335 300.038 315.756 301.87H326.915C331.335 300.038 334.484 296.108 334.731 291.448L335.351 279.731H307.32Z" fill="black"/>
<path d="M331.208 285.485C331.149 286.573 331.233 287.665 331.183 288.754C331.041 291.87 329.756 294.921 327.627 297.201" stroke="#68CAE0" stroke-width="0.666667" stroke-miterlimit="10"/>
<path d="M278.681 296.203L278.626 291.728C278.63 292.117 274.297 291.488 273.919 291.396C271.442 290.784 269.613 288.287 269.379 285.737C269.159 283.328 270.725 281.413 273.055 281.108C273.498 281.051 277.695 280.908 277.517 281.575C277.581 281.339 278.63 277.421 278.63 277.421C274.658 275.649 268.213 277.079 265.842 280.836C264.425 283.08 264.411 285.831 265.138 288.315C267.234 295.479 274.723 296.089 278.681 296.203Z" fill="#EF7273"/>
<path d="M303.078 273.809L302.458 291.448C302.212 296.109 299.063 300.039 294.642 301.869H283.484C279.063 300.039 275.914 296.109 275.667 291.448L275.048 273.809H303.078Z" fill="#EF7273"/>
<path d="M293.73 297.769C295.893 297.056 297.509 295.146 298.341 293.026C299.172 290.906 299.31 288.58 299.277 286.301" stroke="black" stroke-width="0.666667" stroke-miterlimit="10"/>
<path d="M299.452 279.637C299.167 281.053 299.082 282.507 299.2 283.945" stroke="black" stroke-width="0.666667" stroke-miterlimit="10"/>
<path d="M413.629 484.105C412.917 476.286 412.79 468.204 415.433 460.81C416.455 457.953 417.954 455.15 420.371 453.314C422.787 451.478 426.274 450.82 428.906 452.332C431.478 453.809 432.65 456.898 433.15 459.824C434.971 470.5 433.539 471.353 433.01 482.17C432.807 486.312 430.058 500.333 429.317 504.413C428.549 508.63 426.15 513.316 421.763 514.652C418.581 515.621 415.705 514.798 414.891 511.444C414.043 507.948 414.997 503.917 415.027 500.369C415.074 494.938 414.121 489.505 413.629 484.105Z" fill="white"/>
<path d="M413.629 484.105C412.917 476.286 412.79 468.204 415.433 460.81C416.455 457.953 417.954 455.15 420.371 453.314C422.787 451.478 426.274 450.82 428.906 452.332C431.478 453.809 432.65 456.898 433.15 459.824C434.971 470.5 433.539 471.353 433.01 482.17C432.807 486.312 430.058 500.333 429.317 504.413C428.549 508.63 426.15 513.316 421.763 514.652C418.581 515.621 415.705 514.798 414.891 511.444C414.043 507.948 414.997 503.917 415.027 500.369C415.074 494.938 414.121 489.505 413.629 484.105Z" stroke="#1C1C1B" stroke-width="0.666667" stroke-miterlimit="10"/>
<path d="M380.217 520.393C380.976 519.715 381.94 519.337 382.881 518.973C389.138 516.549 395.494 514.391 401.714 511.863C406.198 510.038 411.085 508.498 413.992 504.369C414.129 504.174 414.25 504.003 414.36 503.854C419.718 504.423 425.254 504.319 430.068 502.251C430.597 509.358 431.066 516.502 430.294 523.585C430.265 523.851 430.217 524.147 430 524.309C429.829 524.434 429.6 524.439 429.386 524.439C429.281 524.439 429.177 524.439 429.072 524.441C424.374 524.454 419.704 524.827 414.998 524.853C410.144 524.877 405.289 524.754 400.436 524.881C396.02 524.997 391.288 525.753 386.962 525.587C384.768 525.502 376.252 523.938 380.217 520.393Z" fill="black"/>
<path d="M499.898 479.688C496.601 472.563 493.765 464.993 493.771 457.143C493.773 454.107 494.243 450.964 495.903 448.423C497.562 445.883 500.625 444.089 503.611 444.629C506.531 445.157 508.673 447.672 510.126 450.26C515.429 459.703 514.153 450.717 517.289 461.085C518.49 465.053 520.825 489.452 521.497 493.545C522.193 497.773 521.506 502.993 517.823 505.725C515.151 507.708 512.167 507.899 510.273 505.012C508.301 502.005 507.843 497.888 506.681 494.537C504.899 489.405 502.175 484.608 499.898 479.688Z" fill="white"/>
<path d="M499.898 479.688C496.601 472.563 493.765 464.993 493.771 457.143C493.773 454.107 494.243 450.964 495.903 448.423C497.562 445.883 500.625 444.089 503.611 444.629C506.531 445.157 508.673 447.672 510.126 450.26C515.429 459.703 514.153 450.717 517.289 461.085C518.49 465.053 520.825 489.452 521.497 493.545C522.193 497.773 521.506 502.993 517.823 505.725C515.151 507.708 512.167 507.899 510.273 505.012C508.301 502.005 507.843 497.888 506.681 494.537C504.899 489.405 502.175 484.608 499.898 479.688Z" stroke="#1C1C1B" stroke-width="0.666667" stroke-miterlimit="10"/>
<path d="M457.713 346.326C459.191 338.36 457.757 330.889 459.619 322.722C464.477 301.402 461.26 283.521 455.264 262.265C453.783 257.013 451.712 251.737 447.881 247.85C444.051 243.962 438.112 241.75 432.977 243.6C423.92 246.858 424.057 255.885 422.729 263.541C421.235 272.152 416.753 279.578 414.328 287.858C412.012 295.768 411.452 304.457 410.293 312.664C407.604 331.697 405.383 350.798 403.629 369.942C400.073 408.793 398.447 447.818 398.767 486.83C413.192 488.465 435.044 486.389 449.56 486.612C450.52 454.788 453.3 414.058 454.261 382.236C454.696 367.782 455.184 359.964 457.713 346.326Z" fill="#68CAE0"/>
<path d="M489.714 484.846C502.785 483.379 515.783 480.554 528.105 475.899C526.745 466.722 525.381 457.546 523.979 448.375C516.351 398.444 504.701 348.827 503.373 298.316C503.146 289.668 499.777 280.144 495.259 272.762C490.686 265.288 485.539 258.198 485.469 249.048C485.454 247.21 485.382 244.992 483.79 244.074C483.085 243.666 482.233 243.632 481.418 243.607C474.253 243.396 464.81 241.78 458.355 245.826C454.409 248.3 446.279 256.76 445.673 261.226C445.215 264.598 446.123 267.987 446.971 271.283C453.787 297.743 455.309 324.523 457.741 351.426C458.289 357.498 458.883 363.578 459.597 369.66C464.141 408.442 468.686 447.223 473.229 486.004C478.737 485.828 484.238 485.46 489.714 484.846Z" fill="#68CAE0"/>
<path d="M423.831 256.807C443.369 259.28 465.531 258.305 485.149 256.567" stroke="#1B203F" stroke-miterlimit="10"/>
<path d="M476.974 254.141C459.326 254.583 438.45 255.043 420.825 254.043C419.849 253.985 422.33 225.096 421.908 222.301C420.376 212.171 418.169 201.725 418.417 191.476C418.598 183.965 422.488 178.292 429.589 175.46C432.717 174.213 436.51 175.281 439.85 175.759C441.28 175.961 442.986 174.364 444.468 174.503C446.337 174.677 448.201 174.884 450.049 175.181C453.896 175.804 457.796 176.347 461.741 175.993C462.142 175.956 465.32 175.332 465.732 175.3C470.602 174.919 481.822 177.16 485.921 179.945C494.656 185.883 491.057 202.483 490.957 211.557C490.801 225.632 490.132 239.704 488.948 253.729C484.958 253.904 480.966 254.041 476.974 254.141Z" fill="#EF7273"/>
<path d="M413.043 196.839C411.485 200.287 408.951 203.33 405.366 204.558C404.221 204.95 402.951 205.121 401.805 204.734C400.161 204.177 399.099 202.621 398.161 201.159C394.11 194.854 389.994 188.423 384.507 183.249C380.491 179.459 373.365 173.573 367.775 178.277C366.355 179.474 365.427 181.158 364.77 182.895C362.893 187.861 363.135 193.547 365.247 198.399C367.481 203.53 370.167 208.663 372.845 213.613C376.095 219.621 379.994 225.453 385.434 229.583C392.941 235.283 403.046 237.221 412.255 235.214C421.465 233.206 429.695 227.417 435.145 219.725C440.595 212.034 443.318 202.547 443.329 193.122C443.333 189.527 442.939 185.863 441.486 182.574C439.133 177.247 434.394 173.094 428.366 174.67C424.899 175.577 421.733 177.589 419.439 180.341C417.467 182.706 416.185 185.541 415.227 188.447C414.339 191.146 414.189 194.306 413.043 196.839Z" fill="#EF7273"/>
<path d="M480.551 177.061C482.921 177.815 485.284 178.59 487.589 179.515C498.915 184.057 498.572 198.101 499.396 208.346C499.851 213.986 502.297 221.41 500.568 226.798C500.796 226.086 504.32 224.726 505.052 224.311C512.159 220.277 519.339 215.919 527.107 213.209C530.284 212.101 533.683 211.219 536.989 211.843C542.911 212.961 544.26 218.575 545.507 223.647C547.671 232.453 538.363 238.67 531.899 243.005C524.985 247.641 517.777 251.835 510.332 255.558C505.496 257.977 500.448 260.226 495.067 260.754C490.784 261.174 486.395 260.463 482.464 258.711C471.34 253.758 470.756 237.491 469.161 227.022C467.801 218.089 466.933 209.401 466.604 200.381C466.467 196.618 467.216 193.437 467.633 189.697C467.965 186.734 467.992 183.75 468.289 180.786C468.573 177.954 468.233 175.311 467.993 172.454C472.004 174.417 476.289 175.703 480.551 177.061Z" fill="#EF7273"/>
<path d="M438.419 150.149C438.944 150.797 439.576 151.348 440.342 151.758C441.884 152.585 442.188 153.484 442.306 155.206C442.519 158.332 442.327 161.382 442.102 164.461C448.531 163.405 455.17 164.405 461.666 163.962C461.455 162.73 461.371 161.418 461.472 160.01C462.034 152.108 464.786 141.025 461.251 133.544C456.25 122.958 438.644 119.356 435.912 133.532C435.334 136.536 435.556 139.633 435.916 142.672C436.227 145.293 436.824 148.177 438.419 150.149Z" fill="white"/>
<path d="M438.419 150.149C438.944 150.797 439.576 151.348 440.342 151.758C441.884 152.585 442.188 153.484 442.306 155.206C442.519 158.332 442.327 161.382 442.102 164.461C448.531 163.405 455.17 164.405 461.666 163.962C461.455 162.73 461.371 161.418 461.472 160.01C462.034 152.108 464.786 141.025 461.251 133.544C456.25 122.958 438.644 119.356 435.912 133.532C435.334 136.536 435.556 139.633 435.916 142.672C436.227 145.293 436.824 148.177 438.419 150.149Z" stroke="black" stroke-width="0.666667" stroke-miterlimit="10"/>
<path d="M463.368 164.623C462.946 163.194 462.756 161.702 462.84 160.207C455.702 160.095 448.569 159.724 441.46 159.095C440.516 162.572 441.301 166.546 439.433 169.627C438.388 171.35 436.621 172.542 434.74 173.266C432.858 173.99 430.846 174.292 428.852 174.591C429.257 174.53 431.476 176.924 431.788 177.303C432.489 178.152 432.992 178.922 433.91 179.616C435.772 181.027 437.95 181.972 440.088 182.878C444.59 184.786 449.517 185.706 454.405 185.484C458.578 185.295 462.705 184.275 466.506 182.544C469.916 180.994 472.94 178.987 476.185 177.263C476.873 176.898 476.748 175.884 475.988 175.707C472.797 174.968 469.78 173.476 467.418 171.22C465.533 169.422 464.101 167.115 463.368 164.623Z" fill="#EF7273"/>
<path d="M475.701 108.572C473.628 105.342 469.034 104.386 465.466 104.836C463.641 105.066 461.86 105.642 460.274 106.587C458.745 107.498 457.102 108.8 456.62 110.598C456.07 112.647 456.937 115.028 457.973 116.798C454.033 115.776 448.286 116.603 444.416 117.715C440.592 118.815 436.948 121.188 435.248 124.786C434.69 125.967 434.349 127.258 433.633 128.35C433.186 129.032 432.597 129.632 432.3 130.39C431.102 133.439 436.058 132.756 437.754 132.771C440.61 132.796 443.466 132.822 446.321 132.847C447.364 132.858 448.472 132.848 449.352 132.292C450.268 131.714 450.772 130.644 451.657 130.022C452.374 129.516 453.366 129.359 454.145 129.76C456.514 130.98 454.406 134.904 454.148 136.682C454.117 136.892 454.097 137.123 454.208 137.306C454.352 137.542 454.656 137.61 454.924 137.679C456.501 138.082 457.882 139.195 458.61 140.651C459.224 141.876 459.373 143.271 459.689 144.604C460.213 146.82 461.204 148.892 462.189 150.946C462.256 151.087 462.328 151.232 462.452 151.326C462.946 151.698 463.514 150.972 463.736 150.395C464.562 148.236 465.833 146.436 467.342 144.711C468.725 143.13 469.378 140.91 469.908 138.858C470.456 136.726 470.684 134.307 470.476 131.939C470.105 127.726 468.193 123.736 465.176 120.832C468.252 120.96 471.305 120.36 473.77 118.308C476.537 116.006 477.738 111.748 475.701 108.572Z" fill="black"/>
<path d="M488.588 333.153C488.589 332.962 488.59 332.774 488.592 332.584Z" fill="#E7AC95"/>
<path d="M446.402 152.876C445.974 152.881 445.546 152.877 445.118 152.864C443.867 152.826 442.619 152.712 441.383 152.521C441.509 152.541 441.711 152.958 441.765 153.061C441.871 153.26 441.921 153.441 441.958 153.656C442.051 154.174 442.142 154.673 442.179 155.2C442.278 156.586 442.345 157.976 442.382 159.365C442.735 158.73 443.081 158.136 443.526 157.556C444.018 156.914 444.546 156.298 445.105 155.712C446.177 154.588 447.349 153.493 448.73 152.748C448.474 152.734 448.191 152.804 447.931 152.821C447.619 152.84 447.307 152.853 446.994 152.864C446.797 152.869 446.599 152.874 446.402 152.876Z" fill="#212121"/>
<path d="M453.949 137.719C454.593 135.022 457.489 134.923 458.941 135.354C463.756 136.775 463.44 142.591 459.185 144.471C458.106 144.949 456.753 144.881 455.838 144.134" fill="white"/>
<path d="M453.949 137.719C454.593 135.022 457.489 134.923 458.941 135.354C463.756 136.775 463.44 142.591 459.185 144.471C458.106 144.949 456.753 144.881 455.838 144.134" stroke="black" stroke-width="0.666667" stroke-miterlimit="10"/>
<path d="M438.519 145.553C438.783 146.891 440.103 147.939 441.469 147.893C442.833 147.845 444.077 146.707 444.247 145.354L438.519 145.553Z" fill="white"/>
<path d="M438.519 145.553C438.783 146.891 440.103 147.939 441.469 147.893C442.833 147.845 444.077 146.707 444.247 145.354L438.519 145.553Z" stroke="black" stroke-width="0.666667" stroke-miterlimit="10"/>
<path d="M573.978 214.725C577.332 213.091 580.954 210.334 580.271 206.099C580.075 204.885 579.428 203.757 578.522 202.923C578.132 202.566 577.691 202.255 577.198 202.067C576.234 201.697 575.138 201.813 574.17 202.173C571.85 203.033 569.96 204.785 567.61 205.729C565.267 206.669 562.695 207.33 560.164 206.867C556.85 206.262 559.544 204.766 561.024 203.75C562.042 203.049 563.578 202.042 563.54 200.627C563.495 198.803 561.826 199.106 560.824 200.067C559.067 201.751 556.835 202.933 554.455 203.439C553.031 203.743 551.531 203.817 550.222 204.454C548.5 205.293 547.367 206.97 545.882 208.178C543.176 210.377 539.691 211.543 536.884 213.642C534.806 215.197 535.596 218.579 536.938 220.469C538.323 222.422 540.723 223.918 542.826 222.507C545.3 220.846 548.078 219.317 551.011 218.677C552.788 218.289 554.62 218.245 556.439 218.201C562.488 218.058 568.002 217.535 573.595 214.909C573.723 214.849 573.851 214.787 573.978 214.725Z" fill="white"/>
<path d="M573.978 214.725C577.332 213.091 580.954 210.334 580.271 206.099C580.075 204.885 579.428 203.757 578.522 202.923C578.132 202.566 577.691 202.255 577.198 202.067C576.234 201.697 575.138 201.813 574.17 202.173C571.85 203.033 569.96 204.785 567.61 205.729C565.267 206.669 562.695 207.33 560.164 206.867C556.85 206.262 559.544 204.766 561.024 203.75C562.042 203.049 563.578 202.042 563.54 200.627C563.495 198.803 561.826 199.106 560.824 200.067C559.067 201.751 556.835 202.933 554.455 203.439C553.031 203.743 551.531 203.817 550.222 204.454C548.5 205.293 547.367 206.97 545.882 208.178C543.176 210.377 539.691 211.543 536.884 213.642C534.806 215.197 535.596 218.579 536.938 220.469C538.323 222.422 540.723 223.918 542.826 222.507C545.3 220.846 548.078 219.317 551.011 218.677C552.788 218.289 554.62 218.245 556.439 218.201C562.488 218.058 568.002 217.535 573.595 214.909C573.723 214.849 573.851 214.787 573.978 214.725Z" stroke="black" stroke-width="0.666667" stroke-miterlimit="10"/>
<path d="M370.971 164.814C368.031 161.456 363.688 160.205 359.631 158.814C358.82 158.537 357.992 158.25 357.316 157.724C357.122 157.57 356.932 157.394 356.694 157.328C356.056 157.148 355.467 157.898 355.548 158.554C355.648 159.376 356.554 160.229 357.132 160.776C357.915 161.514 363.784 163.278 360.488 164.256C358.023 164.986 355.36 164.524 352.895 163.793C350.428 163.065 348.02 162.068 345.472 161.72C343.055 161.389 340.822 162.125 339.756 164.445C338.144 167.953 341.332 171.853 344.379 173.233C348.736 175.209 353.746 175.422 358.4 176.19C360.42 176.524 363.376 176.994 364.548 178.865C365.958 181.117 365.868 184.269 366.952 186.697C367.274 187.418 367.7 188.133 368.374 188.544C369.035 188.945 369.854 189.001 370.62 188.909C372.534 188.682 374.323 187.564 375.367 185.946C377.216 183.074 375.488 178.293 374.979 175.106C374.394 171.438 373.479 167.678 370.971 164.814Z" fill="white"/>
<path d="M370.971 164.814C368.031 161.456 363.688 160.205 359.631 158.814C358.82 158.537 357.992 158.25 357.316 157.724C357.122 157.57 356.932 157.394 356.694 157.328C356.056 157.148 355.467 157.898 355.548 158.554C355.648 159.376 356.554 160.229 357.132 160.776C357.915 161.514 363.784 163.278 360.488 164.256C358.023 164.986 355.36 164.524 352.895 163.793C350.428 163.065 348.02 162.068 345.472 161.72C343.055 161.389 340.822 162.125 339.756 164.445C338.144 167.953 341.332 171.853 344.379 173.233C348.736 175.209 353.746 175.422 358.4 176.19C360.42 176.524 363.376 176.994 364.548 178.865C365.958 181.117 365.868 184.269 366.952 186.697C367.274 187.418 367.7 188.133 368.374 188.544C369.035 188.945 369.854 189.001 370.62 188.909C372.534 188.682 374.323 187.564 375.367 185.946C377.216 183.074 375.488 178.293 374.979 175.106C374.394 171.438 373.479 167.678 370.971 164.814Z" stroke="black" stroke-width="0.666667" stroke-miterlimit="10"/>
<path d="M459.851 137.424C458.907 137.245 457.901 137.415 457.068 137.893C456.236 138.372 455.583 139.155 455.261 140.061" fill="white"/>
<path d="M459.851 137.424C458.907 137.245 457.901 137.415 457.068 137.893C456.236 138.372 455.583 139.155 455.261 140.061" stroke="black" stroke-width="0.666667" stroke-miterlimit="10"/>
<path d="M577.782 202.618C574.04 205.955 569.368 208.238 564.438 209.139Z" fill="white"/>
<path d="M577.782 202.618C574.04 205.955 569.368 208.238 564.438 209.139" stroke="black" stroke-width="0.666667" stroke-miterlimit="10"/>
<path d="M579.855 205.105C575.895 208.984 570.514 211.077 565.119 212.345Z" fill="white"/>
<path d="M579.855 205.105C575.895 208.984 570.514 211.077 565.119 212.345" stroke="black" stroke-width="0.666667" stroke-miterlimit="10"/>
<path d="M580.308 208.136C575.93 211.163 570.69 214.071 565.45 214.997Z" fill="white"/>
<path d="M580.308 208.136C575.93 211.163 570.69 214.071 565.45 214.997" stroke="black" stroke-width="0.666667" stroke-miterlimit="10"/>
<path d="M354.006 166.66C349.58 166.34 345.55 164.094 341.284 162.869C341.137 162.828 340.893 162.925 340.994 163.038" fill="white"/>
<path d="M354.006 166.66C349.58 166.34 345.55 164.094 341.284 162.869C341.137 162.828 340.893 162.925 340.994 163.038" stroke="black" stroke-width="0.666667" stroke-miterlimit="10"/>
<path d="M339.915 168.86C344.051 171.052 348.75 172.167 353.43 172.071Z" fill="white"/>
<path d="M339.915 168.86C344.051 171.052 348.75 172.167 353.43 172.071" stroke="black" stroke-width="0.666667" stroke-miterlimit="10"/>
<path d="M339.502 165.547C343.795 167.391 348.331 168.67 352.954 169.338Z" fill="white"/>
<path d="M339.502 165.547C343.795 167.391 348.331 168.67 352.954 169.338" stroke="black" stroke-width="0.666667" stroke-miterlimit="10"/>
<path d="M457.736 346.259C456.512 338.677 452.808 304.8 451.584 297.22C451.136 294.448 450.621 291.524 448.807 289.383" stroke="#1B203F" stroke-width="0.666667" stroke-miterlimit="10"/>
<path d="M479.828 277.074C480.63 279.274 481.642 281.443 483.21 283.183C484.778 284.924 486.967 286.206 489.308 286.27" stroke="#1B203F" stroke-width="0.666667" stroke-miterlimit="10"/>
<path d="M430.068 275.87C430.368 275.893 430.395 276.326 430.308 276.616C429.663 278.758 427.917 280.434 425.943 281.49C423.968 282.546 421.759 283.065 419.577 283.573" stroke="#1B203F" stroke-miterlimit="10"/>
<path d="M501.912 225.649C501.307 226.96 500.08 227.85 499.067 228.88C498.054 229.906 497.182 231.34 497.576 232.729" stroke="#1B203F" stroke-miterlimit="10"/>
<path d="M480.731 525.253C481.224 524.359 482.012 523.675 482.786 523.012C487.919 518.607 493.234 514.419 498.294 509.927C501.942 506.687 506.068 503.577 507.444 498.703C507.51 498.472 507.567 498.271 507.622 498.092C512.904 496.811 518.13 494.836 522.008 491.253C524.898 497.768 527.743 504.339 529.387 511.272C529.45 511.532 529.504 511.829 529.351 512.053C529.231 512.229 529.015 512.313 528.812 512.385C528.712 512.421 528.614 512.456 528.514 512.493C524.054 514.1 519.742 516.036 515.279 517.655C510.675 519.325 506.019 520.855 501.45 522.621C497.292 524.228 493.051 526.547 488.884 527.857C486.771 528.523 478.154 529.939 480.731 525.253Z" fill="black"/>
<path d="M477.219 255.258C474.142 253.004 473.87 248.582 473.962 244.769C474.244 233.129 474.57 217.006 475.59 205.408" stroke="black" stroke-width="0.666667" stroke-miterlimit="10"/>
<path d="M421.667 231.438C422.232 219.66 422.704 209.8 423.27 198.022" stroke="black" stroke-width="0.666667" stroke-miterlimit="10"/>
<path d="M407.295 385.217C407.067 387.828 409.001 390.456 411.561 391.012" stroke="#1B203F" stroke-width="0.666667" stroke-miterlimit="10"/>
<path d="M471.444 388.799C474.1 389.113 476.82 388.883 479.386 388.124" stroke="#1B203F" stroke-width="0.666667" stroke-miterlimit="10"/>
<path d="M392.586 475.907C413.556 477.451 434.652 477.272 455.592 475.374" stroke="#1B203F" stroke-width="2.66667" stroke-miterlimit="10"/>
<path d="M459.249 465.989C435.629 469.598 411.506 469.9 387.804 466.881" stroke="#1B203F" stroke-width="2.66667" stroke-miterlimit="10"/>
<path d="M465.671 478.752C489.93 479.195 516.922 472.979 537.591 460.273" stroke="#1B203F" stroke-width="2.66667" stroke-miterlimit="10"/>
<path d="M467.835 469.855C485.847 470.002 514.704 465.103 531.076 457.591" stroke="#1B203F" stroke-width="2.66667" stroke-miterlimit="10"/>
<path d="M140.007 378.788C141.787 377.787 143.568 376.786 145.35 375.783Z" fill="white"/>
<path d="M140.007 378.788C141.787 377.787 143.568 376.786 145.35 375.783" stroke="#1C1C1B" stroke-width="0.666667" stroke-miterlimit="10"/>
<path d="M177.082 364.662C177.458 366.276 177.072 368.049 176.059 369.358Z" fill="white"/>
<path d="M177.082 364.662C177.458 366.276 177.072 368.049 176.059 369.358" stroke="#1C1C1B" stroke-width="0.666667" stroke-miterlimit="10"/>
<path d="M553.679 307.304L557.01 535.512" stroke="#3364AC" stroke-width="4" stroke-miterlimit="10"/>
<path d="M227.465 307.304L217.372 535.512" stroke="#3364AC" stroke-width="4" stroke-miterlimit="10"/>
<path d="M206.907 301.321H568.695V309.803H206.907V301.321Z" fill="#3364AC"/>
<path d="M101.752 378.294V495.136" stroke="black" stroke-width="1.33333" stroke-miterlimit="10"/>
<path d="M121.198 515.813L101.752 493.361L79.7737 515.813" stroke="black" stroke-width="1.33333" stroke-miterlimit="10"/>
<path d="M149.722 512.404L101.533 492.846L54.8784 512.404" stroke="black" stroke-width="1.33333" stroke-miterlimit="10"/>
<path d="M141.998 512.758C141.998 515.786 144.454 518.242 147.484 518.242C150.513 518.242 152.969 515.786 152.969 512.758C152.969 509.729 150.513 507.273 147.484 507.273C144.454 507.273 141.998 509.729 141.998 512.758Z" fill="#1C1C1B"/>
<path d="M50.8434 512.758C50.8434 515.374 52.9648 517.496 55.5808 517.496C58.1981 517.496 60.3194 515.374 60.3194 512.758C60.3194 510.141 58.1981 508.02 55.5808 508.02C52.9648 508.02 50.8434 510.141 50.8434 512.758Z" fill="#1C1C1B"/>
<path d="M74.6989 515.43C74.6989 519.005 77.5962 521.902 81.1696 521.902C84.7429 521.902 87.6402 519.005 87.6402 515.43C87.6402 511.857 84.7429 508.96 81.1696 508.96C77.5962 508.96 74.6989 511.857 74.6989 515.43Z" fill="#1C1C1B"/>
<path d="M115.177 517.027C115.177 520.291 117.823 522.937 121.087 522.937C124.353 522.937 126.999 520.291 126.999 517.027C126.999 513.761 124.353 511.115 121.087 511.115C117.823 511.115 115.177 513.761 115.177 517.027Z" fill="#1C1C1B"/>
<path d="M176.013 369.259C178.641 361.275 179.937 352.841 180.008 344.452C180.06 338.355 179.055 331.419 174.039 327.955C171.152 325.963 167.492 325.553 163.996 325.269C145.372 323.756 125.605 323.86 109.632 314.164C101.435 309.188 94.9335 301.968 89.3068 294.303C86.4508 290.411 83.8028 286.375 81.1775 282.327C78.8375 278.721 74.6055 277.033 71.8335 273.596C68.1068 268.975 65.7321 263.541 62.3041 258.699C60.1028 255.588 57.8228 252.401 54.6255 250.329C50.7561 247.819 45.9335 247.217 41.3255 247.423C27.8588 248.023 14.6895 255.495 8.04414 267.356C-0.126528 281.941 -0.606528 298.143 1.91347 314.435C7.80681 352.521 33.3201 388.521 69.7908 400.984C79.6575 404.355 89.6841 405.801 100.1 405.697C117.392 405.524 134.988 404.591 151.248 398.704C156.116 396.941 160.323 395.661 163.696 391.681C167.337 387.388 170.353 382.58 172.747 377.488C174.003 374.815 175.091 372.064 176.013 369.259Z" fill="#EF7273"/>
<path d="M229.35 475.408C229.298 475.24 224.658 476.93 223.85 476.29C223.194 475.77 222.839 474.97 222.51 474.2C219.986 468.319 216.397 461.654 213.871 455.771C215.329 455.723 217.743 458.574 219.371 459.018C221.225 459.522 223.253 459.503 225.157 459.483C231.537 459.415 237.663 456.996 244.155 458.048C246.047 458.355 249.738 459.432 251.625 459.77C256.674 460.67 260.591 461.954 266.153 461.886C266.657 461.88 267.189 461.874 267.631 462.115C268.334 462.502 268.59 463.435 268.411 464.215C268.233 464.996 267.713 465.654 267.167 466.24C262.102 471.69 254.098 472.65 247.054 472.896C240.549 473.124 233.989 471.91 228.017 469.315C228.277 471.38 228.731 473.42 229.35 475.408Z" fill="#1C1C1B"/>
<path d="M160.853 528.907C159.165 527.819 158.964 529.147 158.317 530.832C157.724 532.382 157.267 533.984 156.955 535.614C154.505 535.082 152.12 534.264 149.859 533.183C151.008 524.419 152.617 515.715 154.677 507.122C154.709 506.991 161.899 511.115 162.532 511.566C164.944 513.283 167.185 515.232 169.277 517.326C171.331 519.382 173.479 521.144 175.435 523.31C177.803 525.93 180.171 528.55 182.54 531.17C185.075 533.976 187.556 536.443 190.856 538.29C192.043 538.954 193.277 539.618 194.141 540.644C195.213 541.915 195.993 544.526 194.965 546.016C194.173 547.166 192.533 547.279 191.141 547.156C185.621 546.66 180.476 544.263 175.461 541.902C173.923 541.178 172.373 540.447 171.001 539.443C167.127 536.612 164.987 531.867 161.088 529.068C161.007 529.01 160.929 528.956 160.853 528.907Z" fill="#1C1C1B"/>
<path d="M237.864 463.074C233.414 462.123 228.904 461.654 224.448 460.663C221.376 459.98 216.53 458.954 214.47 456.299C212.672 453.983 211.816 450.354 210.474 447.702C199.577 426.18 187.29 405.363 173.713 385.424C172.764 384.031 171.774 382.606 170.37 381.672C168.493 380.426 166.133 380.216 163.884 380.064C153.2 379.344 142.493 377.83 132.03 375.562C122.776 373.556 112.784 371.068 104.846 365.671C101.816 363.611 97.961 360.492 98.4544 356.422C99.5517 347.386 105.834 344.186 111.021 337.851C115.558 332.31 122.698 326.358 125.864 327.636C133.181 330.59 139.661 330.016 147.505 330.882C159.502 332.208 186.412 336.708 195.496 344.628C205.229 353.116 207.708 364.186 210.869 376.407C212.553 382.914 214.549 388.978 216.625 395.355C221.185 409.366 225.556 423.435 229.86 437.527C232.021 444.604 234.613 451.791 241.208 455.799C244.726 457.936 249.128 459.255 253.06 460.404C253.544 461.48 252.444 462.599 251.382 463.112C248.586 464.464 245.316 464.43 242.249 463.946C240.778 463.712 239.322 463.384 237.864 463.074Z" fill="white"/>
<path d="M237.864 463.074C233.414 462.123 228.904 461.654 224.448 460.663C221.376 459.98 216.53 458.954 214.47 456.299C212.672 453.983 211.816 450.354 210.474 447.702C199.577 426.18 187.29 405.363 173.713 385.424C172.764 384.031 171.774 382.606 170.37 381.672C168.493 380.426 166.133 380.216 163.884 380.064C153.2 379.344 142.493 377.83 132.03 375.562C122.776 373.556 112.784 371.068 104.846 365.671C101.816 363.611 97.961 360.492 98.4544 356.422C99.5517 347.386 105.834 344.186 111.021 337.851C115.558 332.31 122.698 326.358 125.864 327.636C133.181 330.59 139.661 330.016 147.505 330.882C159.502 332.208 186.412 336.708 195.496 344.628C205.229 353.116 207.708 364.186 210.869 376.407C212.553 382.914 214.549 388.978 216.625 395.355C221.185 409.366 225.556 423.435 229.86 437.527C232.021 444.604 234.613 451.791 241.208 455.799C244.726 457.936 249.128 459.255 253.06 460.404C253.544 461.48 252.444 462.599 251.382 463.112C248.586 464.464 245.316 464.43 242.249 463.946C240.778 463.712 239.322 463.384 237.864 463.074Z" stroke="#1C1C1B" stroke-width="0.666667" stroke-miterlimit="10"/>
<path d="M111.114 271.164C116.894 280.02 120.219 290.225 123.151 300.385C123.926 303.068 124.704 305.814 126.314 308.097C128.458 311.136 131.832 313.018 135.044 314.892C142.946 319.5 150.536 324.64 157.747 330.266C158.238 330.649 158.752 331.069 158.948 331.658C159.383 332.956 158.11 334.166 156.912 334.824C148.079 339.68 136.971 336.094 128.334 330.898C116.958 324.054 107.043 314.245 101.867 302.02C98.3551 293.721 97.1324 284.662 95.9444 275.73C95.4697 272.169 92.9897 259.297 97.9844 258.997C102.651 258.718 108.976 267.89 111.114 271.164Z" fill="white"/>
<path d="M111.114 271.164C116.894 280.02 120.219 290.225 123.151 300.385C123.926 303.068 124.704 305.814 126.314 308.097C128.458 311.136 131.832 313.018 135.044 314.892C142.946 319.5 150.536 324.64 157.747 330.266C158.238 330.649 158.752 331.069 158.948 331.658C159.383 332.956 158.11 334.166 156.912 334.824C148.079 339.68 136.971 336.094 128.334 330.898C116.958 324.054 107.043 314.245 101.867 302.02C98.3551 293.721 97.1324 284.662 95.9444 275.73C95.4697 272.169 92.9897 259.297 97.9844 258.997C102.651 258.718 108.976 267.89 111.114 271.164Z" stroke="#1C1C1B" stroke-width="0.666667" stroke-miterlimit="10"/>
<path d="M109.934 383.839C107.431 381.118 104.741 377.29 103.587 373.761C101.895 368.581 107.406 372.855 109.659 373.758C111.898 374.655 114.191 375.402 116.537 375.965C121.225 377.087 126.081 377.509 130.891 377.182C138.462 376.667 145.777 374.363 153.106 372.397C160.437 370.43 168.022 368.779 175.565 369.614C181.215 370.239 186.909 372.437 191.057 376.409C194.843 380.034 196.455 385.949 197.206 391.035C198.275 398.279 197.406 405.661 196.266 412.893C191.615 442.426 182.349 470.87 176.138 499.869C175.657 502.115 175.138 504.365 174.834 506.637C174.714 507.523 174.629 508.413 174.59 509.307C174.398 513.718 175.274 518.473 176.989 522.546C178.047 525.061 179.338 528.762 181.246 530.61C182.461 531.785 183.674 532.959 184.887 534.135C185.274 534.507 185.691 534.961 185.638 535.495C185.577 536.118 184.863 536.505 184.241 536.442C183.618 536.381 183.078 536.003 182.57 535.638C181.641 534.97 180.711 534.301 179.781 533.633C172.069 528.089 164.162 524.482 158.202 516.617C157.059 515.109 155.986 513.494 155.51 511.663C155.182 510.401 155.15 509.082 155.122 507.775C154.909 498.221 154.783 488.729 154.377 479.193C154.114 473.059 155.881 401.373 156.53 401.415C144.998 400.522 133.63 397.557 123.13 392.703C118.289 390.467 113.545 387.765 109.934 383.839Z" fill="white"/>
<path d="M109.934 383.839C107.431 381.118 104.741 377.29 103.587 373.761C101.895 368.581 107.406 372.855 109.659 373.758C111.898 374.655 114.191 375.402 116.537 375.965C121.225 377.087 126.081 377.509 130.891 377.182C138.462 376.667 145.777 374.363 153.106 372.397C160.437 370.43 168.022 368.779 175.565 369.614C181.215 370.239 186.909 372.437 191.057 376.409C194.843 380.034 196.455 385.949 197.206 391.035C198.275 398.279 197.406 405.661 196.266 412.893C191.615 442.426 182.349 470.87 176.138 499.869C175.657 502.115 175.138 504.365 174.834 506.637C174.714 507.523 174.629 508.413 174.59 509.307C174.398 513.718 175.274 518.473 176.989 522.546C178.047 525.061 179.338 528.762 181.246 530.61C182.461 531.785 183.674 532.959 184.887 534.135C185.274 534.507 185.691 534.961 185.638 535.495C185.577 536.118 184.863 536.505 184.241 536.442C183.618 536.381 183.078 536.003 182.57 535.638C181.641 534.97 180.711 534.301 179.781 533.633C172.069 528.089 164.162 524.482 158.202 516.617C157.059 515.109 155.986 513.494 155.51 511.663C155.182 510.401 155.15 509.082 155.122 507.775C154.909 498.221 154.783 488.729 154.377 479.193C154.114 473.059 155.881 401.373 156.53 401.415C144.998 400.522 133.63 397.557 123.13 392.703C118.289 390.467 113.545 387.765 109.934 383.839Z" stroke="#1C1C1B" stroke-width="0.666667" stroke-miterlimit="10"/>
<path d="M83.9855 283.328C88.1668 284.673 92.7921 284.288 96.3041 281.497C99.5935 278.881 101.339 274.713 101.409 270.562C101.504 265.038 98.7148 260.404 94.3841 257.14C91.7081 255.122 88.8721 253.317 85.9121 251.745C85.8561 249.46 85.7015 246.529 86.4255 244.332C86.9761 242.658 88.8508 241.997 90.2575 241.209C91.4308 240.552 92.6841 240.076 93.7495 239.23C98.8201 235.21 99.9388 229.644 100.903 223.54C101.296 221.052 100.345 216.493 99.2095 214.245C98.0988 212.046 97.0921 212.62 94.7961 211.724C90.6748 210.116 85.5188 209.021 81.0855 209.742C77.9855 210.244 75.2135 213.208 73.6041 215.808C69.8735 221.836 69.3975 229.796 70.1855 236.668C70.7881 241.905 70.8161 247.749 67.4121 251.777C64.2388 255.532 58.8881 256.702 55.2948 260.061C46.0255 268.724 51.8415 286.117 65.2668 284.509C69.4881 284.004 74.8615 280.804 78.9201 281.653C80.6615 282.018 82.2841 282.806 83.9855 283.328Z" fill="white"/>
<path d="M83.9855 283.328C88.1668 284.673 92.7921 284.288 96.3041 281.497C99.5935 278.881 101.339 274.713 101.409 270.562C101.504 265.038 98.7148 260.404 94.3841 257.14C91.7081 255.122 88.8721 253.317 85.9121 251.745C85.8561 249.46 85.7015 246.529 86.4255 244.332C86.9761 242.658 88.8508 241.997 90.2575 241.209C91.4308 240.552 92.6841 240.076 93.7495 239.23C98.8201 235.21 99.9388 229.644 100.903 223.54C101.296 221.052 100.345 216.493 99.2095 214.245C98.0988 212.046 97.0921 212.62 94.7961 211.724C90.6748 210.116 85.5188 209.021 81.0855 209.742C77.9855 210.244 75.2135 213.208 73.6041 215.808C69.8735 221.836 69.3975 229.796 70.1855 236.668C70.7881 241.905 70.8161 247.749 67.4121 251.777C64.2388 255.532 58.8881 256.702 55.2948 260.061C46.0255 268.724 51.8415 286.117 65.2668 284.509C69.4881 284.004 74.8615 280.804 78.9201 281.653C80.6615 282.018 82.2841 282.806 83.9855 283.328Z" stroke="#1C1C1B" stroke-width="0.666667" stroke-miterlimit="10"/>
<path d="M62.5851 257.006C64.9704 259.187 68.0238 260.478 71.0598 261.589C74.0038 262.667 77.2611 263.258 80.4104 262.917C82.4531 262.695 85.0811 261.971 86.4264 260.314C87.9878 258.393 88.6584 255.433 88.6544 253.014C92.7971 254.099 97.8731 255.059 101.472 257.561C105.458 260.333 107.04 266.323 108.649 270.787C113.192 283.385 114.921 296.798 116.053 310.075C116.182 311.586 116.332 313.179 117.21 314.417C117.813 315.265 118.704 315.861 119.586 316.411C128.768 322.147 139.501 325.554 150.206 326.53L166.966 328.057C158.268 351.779 143.794 377.301 124.934 394.35C123.948 395.242 122.885 396.173 121.573 396.394C116.694 397.218 103.994 389.941 99.4038 387.883C91.6758 384.418 84.3024 379.909 79.0318 373.138C75.9864 369.225 73.7624 364.719 72.0904 360.051C67.8864 348.313 68.6944 336.919 69.9944 324.803C66.2784 313.735 62.5611 302.669 58.8438 291.602C60.1838 288.742 62.1598 286.282 63.5984 283.534C64.1144 282.551 64.3131 281.473 64.3344 280.362C64.3584 279.002 64.1144 277.593 63.8531 276.25C63.5971 274.939 57.8091 261.042 56.1384 262.455C58.2864 260.639 60.4358 258.822 62.5851 257.006Z" fill="#3364AC"/>
<path d="M71.863 287.838C73.079 296.503 73.3444 305.333 72.7417 313.978C72.5057 317.325 72.0137 321.103 69.6844 323.686C68.119 325.421 65.8444 326.534 63.5084 326.554C62.067 326.567 60.6524 326.179 59.283 325.729C53.459 323.809 50.275 318.134 48.751 312.399C46.8697 305.315 44.6364 284.153 46.3217 278.441C47.923 273.014 52.5924 268.058 58.251 268.027C62.8457 268.002 68.2444 270.813 69.4004 275.325C70.4537 279.429 71.271 283.614 71.863 287.838Z" fill="white"/>
<path d="M71.863 287.838C73.079 296.503 73.3444 305.333 72.7417 313.978C72.5057 317.325 72.0137 321.103 69.6844 323.686C68.119 325.421 65.8444 326.534 63.5084 326.554C62.067 326.567 60.6524 326.179 59.283 325.729C53.459 323.809 50.275 318.134 48.751 312.399C46.8697 305.315 44.6364 284.153 46.3217 278.441C47.923 273.014 52.5924 268.058 58.251 268.027C62.8457 268.002 68.2444 270.813 69.4004 275.325C70.4537 279.429 71.271 283.614 71.863 287.838Z" stroke="#1C1C1B" stroke-width="0.666667" stroke-miterlimit="10"/>
<path d="M71.7511 260.829C72.1871 261.264 72.6484 261.672 73.1711 261.989C74.8511 263.013 77.0524 263.029 78.9564 263.038C78.6324 263.954 78.0364 264.601 77.5298 265.424C76.9644 266.345 76.0591 266.988 75.4751 267.889C74.9178 268.746 74.5058 269.69 74.0951 270.628C73.7818 271.345 73.4671 272.062 73.1538 272.78C72.8138 273.556 73.3578 274.761 73.5004 275.578C73.6964 276.694 73.8618 277.818 73.9844 278.946C74.2138 281.082 74.2964 283.246 74.0951 285.39C69.7458 286.501 64.1938 285.722 59.7018 285.68C54.5351 285.63 49.3671 285.485 44.2044 285.246C43.8378 285.229 43.4244 285.19 43.1938 284.904C43.0098 284.676 43.0004 284.357 43.0004 284.064C43.0071 281.072 43.1818 278.082 43.6698 275.132C44.1471 272.245 44.2204 269.298 44.9498 266.434C45.2804 265.132 45.7218 263.84 46.4404 262.702C49.0604 258.561 53.6978 256.693 58.0978 255.037C60.4458 254.152 62.7938 253.268 65.1404 252.384C66.2938 255.181 68.4258 257.401 70.5084 259.53C70.9218 259.953 71.3244 260.405 71.7511 260.829Z" fill="#3364AC"/>
<path d="M86.3435 224.718C86.8995 223.068 87.6141 221.53 88.9581 220.406C90.4555 219.153 92.4501 218.51 94.3981 218.65C96.6635 218.816 98.8155 219.356 101.138 219.461C101.499 219.476 101.925 219.465 102.138 219.172C102.258 219.005 102.275 218.789 102.287 218.584C102.57 213.593 96.5168 209.08 92.5461 207.19C86.8741 204.493 80.2741 203.714 74.1555 205.188C72.5248 205.58 70.9181 206.128 69.4635 206.965C67.3675 208.169 65.6208 209.974 64.4835 212.109C64.1035 212.825 63.7715 213.6 63.1595 214.133C62.1208 215.033 60.5981 214.994 59.2715 215.357C53.9501 216.816 55.7328 222.782 52.3768 225.902C51.2648 226.934 49.6875 227.3 48.4595 228.19C47.0555 229.209 46.2021 230.88 45.9688 232.598C45.6355 235.061 46.3701 237.02 47.7968 238.926C50.0568 241.948 54.5355 242.268 58.1821 241.305C59.1968 241.037 60.2595 240.692 61.2688 240.973C62.6995 241.373 63.4848 242.849 64.4235 244.001C66.7035 246.798 70.7128 248.024 74.1875 247.048C77.6621 246.073 80.4288 242.981 81.0875 239.433C81.3715 237.904 81.2928 236.317 81.6448 234.801C81.9728 233.385 83.3301 232.056 84.0755 230.844C85.1995 229.016 85.6488 226.778 86.3435 224.718Z" fill="#1C1C1B"/>
<path d="M92.4151 240.025L92.3471 240.176C90.5391 240.599 89.0364 241.784 87.7137 243.076C86.2137 242.285 84.8111 241.34 84.1657 239.957C83.8764 239.336 83.5857 238.603 83.5311 237.936C85.9351 239.748 89.3097 240.543 92.4151 240.025Z" fill="#1C1C1B"/>
<path d="M95.8175 234.419C95.2868 235.72 93.8815 236.608 92.4788 236.529C91.0761 236.449 89.7788 235.409 89.3975 234.057" stroke="#1C1C1B" stroke-width="0.666667" stroke-miterlimit="10"/>
<path d="M120.539 344.928L169.354 338.366C169.567 338.338 169.63 338.024 169.438 337.936L141.431 324.969L91.8288 331.636L120.539 344.928Z" fill="white"/>
<path d="M120.539 344.928L169.354 338.366C169.567 338.338 169.63 338.024 169.438 337.936L141.431 324.969L91.8288 331.636L120.539 344.928Z" stroke="#1C1C1B" stroke-width="0.666667" stroke-miterlimit="10"/>
<path d="M122.448 340.869L148.086 337.423L133.288 331.456L107.649 334.901L122.448 340.869Z" fill="white"/>
<path d="M122.448 340.869L148.086 337.423L133.288 331.456L107.649 334.901L122.448 340.869Z" stroke="#1C1C1B" stroke-width="0.666667" stroke-miterlimit="10"/>
<path d="M170.668 337.081L183.846 307.595L132.594 314.08L120.539 344.928L168.959 338.42C169.69 338.323 170.343 337.809 170.668 337.081Z" fill="black"/>
<path d="M112.337 291.479L100.176 290.023C99.9996 289.756 99.917 289.631 99.7396 289.363L107.296 263.531C107.366 263.287 107.604 263.131 107.856 263.161L120.017 264.617C120.193 264.884 120.276 265.009 120.452 265.277L112.896 291.111C112.685 291.249 112.549 291.34 112.337 291.479Z" fill="#1C1C1B"/>
<path d="M67.598 306.44C70.0273 304.637 75.218 302.36 75.218 302.36C75.9753 301.973 76.726 301.578 77.474 301.177C81.2447 299.158 84.9553 297.018 88.5607 294.717C90.7087 293.346 92.822 291.914 94.8527 290.373C96.5433 289.09 99.2087 287.452 99.6353 285.224C100.319 281.658 100.849 276.966 103.531 274.298C103.687 274.141 103.979 273.998 104.091 274.189C104.129 274.254 104.123 274.336 104.114 274.412C103.871 276.373 103.09 278.593 105.515 279.322C107.626 279.957 109.987 279.216 111.771 278.049C114.002 276.589 115.721 274.474 117.809 272.817C118.182 272.522 118.838 272.298 119.037 272.73C119.11 272.888 119.073 273.073 119.035 273.245C118.734 274.612 118.187 275.918 117.255 276.977C117.457 277.608 117.215 278.246 117.318 279.045C117.835 283.124 118.623 284.925 115.725 288.13C113.45 290.644 110.573 292.149 108.195 294.401C104.263 298.124 101.058 302.468 97.3873 306.422C93.1553 310.98 89.2033 315.798 84.774 320.17C77.1167 327.729 66.8327 336.318 56.666 327.304C52.3887 323.513 50.062 317.964 48.7513 312.4" fill="white"/>
<path d="M67.598 306.44C70.0273 304.637 75.218 302.36 75.218 302.36C75.9753 301.973 76.726 301.578 77.474 301.177C81.2447 299.158 84.9553 297.018 88.5607 294.717C90.7087 293.346 92.822 291.914 94.8527 290.373C96.5433 289.09 99.2087 287.452 99.6353 285.224C100.319 281.658 100.849 276.966 103.531 274.298C103.687 274.141 103.979 273.998 104.091 274.189C104.129 274.254 104.123 274.336 104.114 274.412C103.871 276.373 103.09 278.593 105.515 279.322C107.626 279.957 109.987 279.216 111.771 278.049C114.002 276.589 115.721 274.474 117.809 272.817C118.182 272.522 118.838 272.298 119.037 272.73C119.11 272.888 119.073 273.073 119.035 273.245C118.734 274.612 118.187 275.918 117.255 276.977C117.457 277.608 117.215 278.246 117.318 279.045C117.835 283.124 118.623 284.925 115.725 288.13C113.45 290.644 110.573 292.149 108.195 294.401C104.263 298.124 101.058 302.468 97.3873 306.422C93.1553 310.98 89.2033 315.798 84.774 320.17C77.1167 327.729 66.8327 336.318 56.666 327.304C52.3887 323.513 50.062 317.964 48.7513 312.4" stroke="#1C1C1B" stroke-width="0.666667" stroke-miterlimit="10"/>
<path d="M176.671 320.275C175.708 320.078 174.728 319.966 173.787 319.862C173.144 319.791 172.483 319.741 171.843 319.873C171.303 319.985 170.606 320.193 170.428 320.831C170.323 321.214 170.438 321.657 170.712 321.923C170.47 321.687 170.027 321.893 169.782 322.023C169.178 322.343 168.975 323.137 169.359 323.745C169.595 324.115 170.012 324.283 170.39 324.434C169.935 324.251 169.131 324.845 168.899 325.222C168.575 325.75 168.684 326.551 169.042 327.025C169.31 327.379 169.679 327.626 170.054 327.842C169.736 327.839 169.408 327.921 169.163 328.138C168.918 328.355 168.774 328.721 168.86 329.049C168.959 329.425 169.306 329.649 169.623 329.835C171.01 330.65 172.604 331.137 174.143 331.502C175.143 331.739 177.786 332.55 178.25 331.153C178.428 330.613 178.254 329.959 177.834 329.605C178.299 329.523 178.782 329.427 179.159 329.126C180.034 328.423 179.534 327.598 179.006 326.931C179.708 326.979 180.444 326.595 180.551 325.751C180.642 325.031 180.21 324.307 179.61 323.977C181.446 323.894 180.807 321.979 179.714 321.357C178.774 320.819 177.732 320.494 176.671 320.275Z" fill="white"/>
<path d="M176.671 320.275C175.708 320.078 174.728 319.966 173.787 319.862C173.144 319.791 172.483 319.741 171.843 319.873C171.303 319.985 170.606 320.193 170.428 320.831C170.323 321.214 170.438 321.657 170.712 321.923C170.47 321.687 170.027 321.893 169.782 322.023C169.178 322.343 168.975 323.137 169.359 323.745C169.595 324.115 170.012 324.283 170.39 324.434C169.935 324.251 169.131 324.845 168.899 325.222C168.575 325.75 168.684 326.551 169.042 327.025C169.31 327.379 169.679 327.626 170.054 327.842C169.736 327.839 169.408 327.921 169.163 328.138C168.918 328.355 168.774 328.721 168.86 329.049C168.959 329.425 169.306 329.649 169.623 329.835C171.01 330.65 172.604 331.137 174.143 331.502C175.143 331.739 177.786 332.55 178.25 331.153C178.428 330.613 178.254 329.959 177.834 329.605C178.299 329.523 178.782 329.427 179.159 329.126C180.034 328.423 179.534 327.598 179.006 326.931C179.708 326.979 180.444 326.595 180.551 325.751C180.642 325.031 180.21 324.307 179.61 323.977C181.446 323.894 180.807 321.979 179.714 321.357C178.774 320.819 177.732 320.494 176.671 320.275Z" stroke="#1C1C1B" stroke-width="0.666667" stroke-miterlimit="10"/>
<path d="M169.822 327.82C173.591 328.804 174.459 329.228 178.041 329.57" stroke="#1C1C1B" stroke-width="0.666667" stroke-miterlimit="10"/>
<path d="M179.164 326.945C177.529 326.514 175.306 325.803 173.672 325.371C171.746 324.865 171.352 324.521 169.429 324.317" stroke="#1C1C1B" stroke-width="0.666667" stroke-miterlimit="10"/>
<path d="M179.737 323.993C176.594 323.341 173.398 322.648 170.311 321.78" stroke="#1C1C1B" stroke-width="0.666667" stroke-miterlimit="10"/>
<path d="M62.4177 327.626C63.5537 328.346 65.0004 328.555 66.2924 328.188Z" fill="white"/>
<path d="M62.4177 327.626C63.5537 328.346 65.0004 328.555 66.2924 328.188" stroke="#1C1C1B" stroke-width="0.666667" stroke-miterlimit="10"/>
<path d="M68.8845 327.503C69.3672 327.243 69.8952 327.066 70.4379 326.985Z" fill="white"/>
<path d="M68.8845 327.503C69.3672 327.243 69.8952 327.066 70.4379 326.985" stroke="#1C1C1B" stroke-width="0.666667" stroke-miterlimit="10"/>
<path d="M115.508 280.718C115.162 281.005 114.816 281.293 114.47 281.579Z" fill="white"/>
<path d="M115.508 280.718C115.162 281.005 114.816 281.293 114.47 281.579" stroke="#1C1C1B" stroke-width="0.666667" stroke-miterlimit="10"/>
<path d="M115.848 282.783C115.56 282.957 115.272 283.129 114.985 283.302Z" fill="white"/>
<path d="M115.848 282.783C115.56 282.957 115.272 283.129 114.985 283.302" stroke="#1C1C1B" stroke-width="0.666667" stroke-miterlimit="10"/>
<path d="M116.884 284.51C116.712 284.683 116.539 284.855 116.367 285.028Z" fill="white"/>
<path d="M116.884 284.51C116.712 284.683 116.539 284.855 116.367 285.028" stroke="#1C1C1B" stroke-width="0.666667" stroke-miterlimit="10"/>
<path d="M198.039 374.031C198.829 375.765 199.434 377.581 199.843 379.443" stroke="black" stroke-width="0.666667" stroke-miterlimit="10"/>
<path d="M14.3545 286.023C14.2292 315.163 25.1345 344.219 44.4025 366.082" stroke="black" stroke-width="0.666667" stroke-miterlimit="10"/>
<path d="M51.154 371.943C54.9993 376.229 59.566 379.863 64.6033 382.651" stroke="black" stroke-width="0.666667" stroke-miterlimit="10"/>
<path d="M63.4939 329.855C64.3086 330.702 65.6099 331.042 66.7352 330.704" stroke="black" stroke-width="0.666667" stroke-miterlimit="10"/>
<path d="M73.6169 339.769C73.3849 342.384 73.1556 345.044 73.6969 347.613C74.8369 353.02 79.1809 357.148 83.6996 360.328" stroke="black" stroke-width="0.666667" stroke-miterlimit="10"/>
<path d="M86.947 362.309C88.1697 363.148 89.5097 363.817 90.915 364.292" stroke="black" stroke-width="0.666667" stroke-miterlimit="10"/>
<path d="M72.0363 285.833C71.4536 282.593 70.8723 279.355 70.2896 276.115" stroke="black" stroke-width="0.666667" stroke-miterlimit="10"/>
<path d="M104.382 274.239C103.435 272.436 102.45 270.655 101.425 268.895" stroke="black" stroke-width="0.666667" stroke-miterlimit="10"/>
<path d="M31.2738 132.976L23.0832 142.08C22.6618 142.792 22.4178 143.624 22.4178 144.512V192.452C22.4178 195.087 24.5538 197.223 27.1885 197.223L72.6152 197.056C73.2112 197.093 75.5538 197.168 76.6672 196.053C78.7578 193.963 86.2472 185.693 86.2472 185.693" stroke="#1C1C1B" stroke-width="0.666667" stroke-miterlimit="10"/>
<path d="M80.1957 188.533H36.8251C33.2984 188.533 30.4384 185.675 30.4384 182.148V137.44C30.4384 133.913 33.2984 131.055 36.8251 131.055H80.1957C83.7224 131.055 86.5824 133.913 86.5824 137.44V182.148C86.5824 185.675 83.7224 188.533 80.1957 188.533Z" stroke="#1C1C1B" stroke-width="0.666667" stroke-miterlimit="10"/>
<path d="M31.7752 186.696L23.5325 195.441Z" fill="white"/>
<path d="M31.7752 186.696L23.5325 195.441" stroke="#1C1C1B" stroke-width="0.666667" stroke-miterlimit="10"/>
<path d="M83.9907 170.952C84.0493 173.994 83.988 177.036 83.804 180.074" stroke="#1C1C1B" stroke-width="0.666667" stroke-miterlimit="10"/>
<path d="M83.6424 182.312C83.5171 182.871 83.3918 183.429 83.2664 183.987" stroke="#1C1C1B" stroke-width="0.666667" stroke-miterlimit="10"/>
<path d="M80.8312 185.71C79.5272 185.829 78.2245 185.946 76.9205 186.064" stroke="#1C1C1B" stroke-width="0.666667" stroke-miterlimit="10"/>
<path d="M74.4783 154.781L59.1063 139.743L42.3956 154.781H50.417V179.177H66.4583V154.781H74.4783Z" fill="#8EDDA3"/>
<path d="M74.4783 154.781L59.1063 139.743L42.3956 154.781H50.417V179.177H66.4583V154.781H74.4783Z" stroke="black" stroke-width="0.666667" stroke-miterlimit="10"/>
<path d="M52.3292 156.247C52.1212 158.599 52.0692 160.963 52.1719 163.322" stroke="#1C1C1B" stroke-width="0.666667" stroke-miterlimit="10"/>
<path d="M52.1625 165.742V167.983" stroke="#1C1C1B" stroke-width="0.666667" stroke-miterlimit="10"/>
<path d="M487.803 36.4838C487.726 22.8265 476.222 11.9038 462.406 12.7305C450.753 13.4251 441.105 22.7318 440.039 34.3571C439.273 42.7318 442.819 50.2958 448.701 55.1185C452.306 58.0718 454.738 62.2145 455.247 66.8478L456.667 79.7425L471.559 79.6585L472.833 66.7451C473.289 62.1318 475.63 57.9598 479.19 54.9918C484.487 50.5745 487.845 43.9198 487.803 36.4838Z" fill="#8EDDA3"/>
<path d="M464.131 82.8912C458.942 82.9206 454.711 78.7379 454.682 73.5486L454.659 69.4712L473.451 69.3632L473.474 73.4419C473.503 78.6312 469.321 82.8632 464.131 82.8912Z" fill="black"/>
<path d="M468.474 70.9291C469.463 65.5598 470.452 60.1905 471.443 54.8211C472.144 51.0065 472.848 47.1918 473.551 43.3771C474.087 40.4678 476.686 35.0438 471.951 34.1145C470.186 33.7678 468.184 35.2558 468.327 37.0505C468.358 37.4491 468.492 37.8505 468.768 38.1398C469.548 38.9585 471.13 38.3265 471.39 37.2251C471.648 36.1238 470.858 34.9811 469.83 34.5091C467.871 33.6078 465.239 35.0638 464.96 37.1998C464.934 37.4065 464.93 37.6318 465.047 37.8038C465.326 38.2158 466.011 37.9665 466.27 37.5425C466.808 36.6545 466.271 35.4025 465.355 34.9131C464.439 34.4238 463.307 34.5451 462.332 34.9078C460.898 35.4411 459.522 36.9171 460.064 38.3478C460.17 38.6238 460.37 38.8945 460.658 38.9571C460.832 38.9958 461.015 38.9531 461.178 38.8785C463.952 37.6251 460.146 33.4811 457.518 34.7838C455.944 35.5638 455.123 37.3998 455.044 39.1531C454.966 40.9078 455.494 42.6251 455.975 44.3145C458.323 52.5331 459.71 61.0265 460.098 69.5678C460.147 70.6571 460.023 70.6691 459.64 71.6905" stroke="#1C1C1B" stroke-width="0.666667" stroke-miterlimit="10"/>
<path d="M427.043 30.4564C431.365 31.0578 429.967 30.8644 434.363 31.4751" stroke="#1C1C1B" stroke-width="0.666667" stroke-miterlimit="10"/>
<path d="M433.482 12.6465L439.085 17.7399" stroke="#1C1C1B" stroke-width="0.666667" stroke-miterlimit="10"/>
<path d="M456.633 1.11132C456.997 2.98599 457.368 6.08066 457.732 7.95532" stroke="#1C1C1B" stroke-width="0.666667" stroke-miterlimit="10"/>
<path d="M472.336 0.449949C471.807 4.47795 471.444 7.24195 471.228 8.88062" stroke="#1C1C1B" stroke-width="0.666667" stroke-miterlimit="10"/>
<path d="M494.954 16.6245C491.243 19.2245 491.497 19.0471 487.677 21.7231" stroke="#1C1C1B" stroke-width="0.666667" stroke-miterlimit="10"/>
<path d="M493.361 33.1113C497.841 33.406 496.726 33.3327 501.232 33.63" stroke="#1C1C1B" stroke-width="0.666667" stroke-miterlimit="10"/>
<path d="M452.558 74.0918L475.604 73.9612" stroke="#8EDDA3" stroke-width="0.666667" stroke-miterlimit="10"/>
<path d="M452.584 78.7013L475.63 78.5706" stroke="#8EDDA3" stroke-width="0.666667" stroke-miterlimit="10"/>
<path d="M476.714 21.2611C481.202 24.5131 483.905 30.0904 483.674 35.6278" stroke="#1C1C1B" stroke-width="0.666667" stroke-miterlimit="10"/>
<path d="M482.677 43.657C481.878 46.3676 480.362 48.8636 478.326 50.8236" stroke="#1C1C1B" stroke-width="0.666667" stroke-miterlimit="10"/>
<path d="M303.084 47.4043L302.895 47.4003C304.147 47.4257 305.18 46.4203 305.186 45.1617C305.191 43.9217 304.144 42.9297 302.904 42.9043C300.972 42.8657 297.296 43.5563 295.607 42.7603C292.658 41.3697 294.94 36.3923 294.972 34.055C294.986 33.1817 294.93 32.2697 294.506 31.5043C294.083 30.7403 293.199 30.167 292.346 30.3617C291.188 30.6243 290.74 31.9937 290.399 33.131C289.6 35.7857 287.715 38.219 286.187 40.4897C284.466 43.0497 283.27 46.0243 282.891 49.0937C282.576 51.6577 282.496 54.251 282.658 56.8297C282.818 59.391 283.864 60.495 286.302 60.5563C288.032 60.6003 289.766 60.6257 291.498 60.6603L295.568 60.7417L300.79 60.8457C302.03 60.871 303.115 59.9217 303.159 58.6803C303.204 57.4243 302.211 56.3777 300.959 56.3537L301.867 56.3723C303.051 56.395 304.1 55.5297 304.215 54.351C304.311 53.371 303.775 52.499 302.991 52.0937C304.235 52.1177 305.263 51.1297 305.288 49.8843L305.291 49.703C305.316 48.4577 304.328 47.4283 303.084 47.4043Z" fill="#68CAE0"/>
<path d="M280.344 46.0905L278.752 45.6879C278.171 45.5412 277.531 45.3985 276.993 45.6679C274.865 46.7279 275.431 52.1052 275.424 54.0305C275.417 55.9612 274.324 60.5292 277.281 60.7959C278.296 60.8879 279.448 60.9359 280.189 60.2359C280.74 59.7185 280.909 58.9225 281.035 58.1772C281.407 55.9519 281.624 53.7012 281.687 51.4465C281.716 50.4092 281.957 47.3132 281.208 46.4359C281.073 46.2799 280.861 46.2212 280.66 46.1705C280.555 46.1439 280.449 46.1172 280.344 46.0905Z" fill="#68CAE0"/>
<path d="M516.412 146.528L516.27 146.524C517.216 146.544 517.998 145.783 518.002 144.832C518.006 143.893 517.214 143.144 516.275 143.124C514.815 143.096 512.035 143.617 510.756 143.015C508.527 141.964 510.254 138.201 510.278 136.433C510.287 135.772 510.246 135.083 509.924 134.504C509.606 133.927 508.936 133.493 508.291 133.639C507.415 133.837 507.078 134.875 506.819 135.733C506.215 137.741 504.79 139.581 503.634 141.299C502.331 143.235 501.427 145.484 501.142 147.805C500.903 149.744 500.843 151.707 500.964 153.656C501.086 155.593 501.878 156.428 503.72 156.475C505.03 156.507 506.339 156.527 507.65 156.553L510.728 156.613L514.676 156.693C515.614 156.712 516.436 155.995 516.468 155.056C516.503 154.105 515.752 153.315 514.804 153.295L515.492 153.309C516.387 153.328 517.18 152.672 517.267 151.78C517.34 151.04 516.934 150.383 516.342 150.073C517.282 150.093 518.06 149.344 518.079 148.403L518.08 148.265C518.1 147.325 517.352 146.547 516.412 146.528Z" fill="#68CAE0"/>
<path d="M499.215 145.535C498.814 145.433 498.413 145.332 498.011 145.229C497.573 145.119 497.087 145.012 496.682 145.215C495.073 146.016 495.499 150.083 495.494 151.54C495.49 153 494.663 156.453 496.899 156.656C497.666 156.725 498.538 156.761 499.099 156.232C499.515 155.84 499.643 155.239 499.738 154.675C500.019 152.992 500.183 151.289 500.231 149.584C500.253 148.8 500.437 146.459 499.869 145.796C499.767 145.677 499.606 145.633 499.455 145.595C499.375 145.575 499.295 145.555 499.215 145.535Z" fill="#68CAE0"/>
<path d="M146.488 160.925L146.335 160.922C147.348 160.942 148.184 160.128 148.188 159.112C148.193 158.106 147.345 157.304 146.341 157.285C144.779 157.253 141.804 157.812 140.437 157.168C138.051 156.042 139.899 152.014 139.924 150.124C139.935 149.417 139.889 148.68 139.547 148.061C139.204 147.441 138.488 146.978 137.799 147.134C136.861 147.346 136.5 148.456 136.223 149.376C135.577 151.524 134.051 153.493 132.816 155.33C131.423 157.401 130.455 159.808 130.149 162.292C129.893 164.368 129.829 166.465 129.96 168.553C130.089 170.624 130.936 171.518 132.907 171.568C134.309 171.604 135.711 171.624 137.112 171.652L140.405 171.718L144.631 171.801C145.635 171.821 146.513 171.054 146.548 170.05C146.584 169.033 145.781 168.186 144.768 168.166L145.504 168.181C146.46 168.2 147.309 167.5 147.404 166.546C147.481 165.753 147.045 165.049 146.412 164.72C147.419 164.74 148.251 163.94 148.271 162.932L148.273 162.785C148.293 161.778 147.495 160.945 146.488 160.925Z" fill="#68CAE0"/>
<path d="M128.088 159.863C127.658 159.753 127.228 159.645 126.8 159.537C126.329 159.417 125.81 159.304 125.377 159.52C123.654 160.377 124.112 164.728 124.106 166.287C124.101 167.849 123.217 171.545 125.609 171.761C126.43 171.835 127.362 171.875 127.962 171.309C128.408 170.891 128.545 170.245 128.646 169.643C128.948 167.841 129.124 166.02 129.174 164.196C129.198 163.357 129.393 160.851 128.786 160.143C128.678 160.015 128.505 159.968 128.344 159.927C128.258 159.905 128.173 159.884 128.088 159.863Z" fill="#68CAE0"/>
<path d="M164.558 208.179C154.75 208.179 146.796 199.31 146.796 199.31C146.796 199.31 154.75 190.44 164.558 190.44C174.367 190.44 182.319 199.31 182.319 199.31C182.319 199.31 174.367 208.179 164.558 208.179Z" fill="white"/>
<path d="M164.558 208.179C154.75 208.179 146.796 199.31 146.796 199.31C146.796 199.31 154.75 190.44 164.558 190.44C174.367 190.44 182.319 199.31 182.319 199.31C182.319 199.31 174.367 208.179 164.558 208.179Z" stroke="#1C1C1B" stroke-width="0.666667" stroke-miterlimit="10"/>
<path d="M164.495 208.201C160.217 208.201 156.747 204.225 156.747 199.321C156.747 194.416 160.217 190.44 164.495 190.44C168.774 190.44 172.243 194.416 172.243 199.321C172.243 204.225 168.774 208.201 164.495 208.201Z" fill="black"/>
<path d="M342.899 303.093L422.635 303.088C423.807 303.088 425.079 299.484 425.079 299.484C425.079 298.312 424.069 298.85 422.899 298.85H342.899C341.728 298.85 340.777 299.8 340.777 300.972C340.777 302.144 341.728 303.093 342.899 303.093Z" fill="black"/>
<path d="M354.767 301.137H424.781L439.324 265.223C439.799 264.055 438.937 262.777 437.676 262.777H371.499C370.773 262.777 370.121 263.217 369.851 263.888L354.767 301.137Z" fill="black"/>
<path d="M403.469 281.059C402.891 282.573 400.937 283.799 399.108 283.799C397.277 283.799 396.263 282.573 396.841 281.059C397.42 279.546 399.373 278.319 401.204 278.319C403.033 278.319 404.048 279.546 403.469 281.059Z" stroke="white" stroke-width="0.666667" stroke-miterlimit="10"/>
<path d="M516.631 195.51C518.65 192.738 520.956 190.102 523.008 187.888C527.424 183.122 532.575 179.259 537.967 176.012C540.867 186.708 538.052 198.538 532.698 207.976C529.278 214.006 524.887 219.248 520.222 224.091C517.611 226.802 514.887 229.279 512.178 231.922C511.946 232.147 511.627 232.384 511.358 232.22C511.148 232.094 511.095 231.794 511.062 231.531C509.83 221.443 508.707 210.594 512.936 201.576C513.886 199.554 515.184 197.496 516.631 195.51Z" fill="#8EDDA3"/>
<path d="M477.526 207.542C477.578 214.381 477.729 221.318 479.489 227.868C481.249 234.417 484.834 240.634 490.249 243.818C493.185 245.544 496.488 246.298 499.608 247.556C502.742 248.818 505.517 250.712 507.409 253.817C508.396 244.501 504.23 234.47 499.762 226.865C494.518 217.936 486.64 210.874 477.526 207.542Z" fill="#8EDDA3"/>
<path d="M528.31 227.874C536.055 222.106 545.323 219.577 554.406 217.305C551.748 225.589 548.966 234.112 543.654 240.608C538.695 246.672 531.808 250.52 524.631 252.29C523.275 252.625 514.8 256.265 514.263 255.933C512.942 255.116 515.019 249.832 515.316 248.57C517.366 239.9 521.548 232.91 528.31 227.874Z" fill="#8EDDA3"/>
<path d="M511.418 277.288C511.8 271.164 512.188 264.995 513.751 259.063C515.314 253.131 518.147 247.379 522.728 243.3C529.004 237.712 538.282 235.41 542.667 228.243" stroke="#1A0400" stroke-width="0.666667" stroke-miterlimit="10"/>
<path d="M518.469 210.033C518.166 211.909 517.465 213.695 516.784 215.468C513.854 223.099 511.204 230.92 510.314 239.044C509.598 245.583 510.038 252.193 509.634 258.76C509.516 260.681 509.325 262.599 509.134 264.515C508.924 266.637 508.713 268.76 508.501 270.884" stroke="#1A0400" stroke-width="0.666667" stroke-miterlimit="10"/>
<path d="M490.709 226.842C491.203 231.175 493.818 234.963 496.649 238.282C501.583 244.067 507.545 249.39 507.474 257.534C507.439 261.562 506.462 265.522 506.151 269.536" stroke="#1A0400" stroke-width="0.666667" stroke-miterlimit="10"/>
<path d="M495.963 301.51C495.963 301.51 525.555 301.686 525.569 301.51L527.449 270.571H493.615C493.615 270.571 495.958 301.451 495.963 301.51Z" fill="#FDC018"/>
<path d="M495.81 280.171C496.494 279.89 497.165 279.559 497.602 279.019C498.222 278.254 498.862 277.449 499.757 277.037C500.449 276.719 501.226 276.669 501.985 276.609C504.37 276.425 506.745 276.121 509.116 275.791C511.306 275.486 513.233 275.051 515.037 273.682C515.754 273.139 516.432 272.447 516.618 271.567C516.806 270.687 516.308 269.619 515.42 269.474C515.236 269.443 515.05 269.453 514.865 269.462C513.185 269.546 493.698 271.497 493.616 270.571C493.918 273.943 494.306 277.327 494.501 280.703C494.904 280.518 495.36 280.355 495.81 280.171Z" fill="#1A0400"/>
<path d="M528.834 264.954L493.468 265.002C493.165 265.002 492.872 265.035 492.588 265.086V273.263C492.874 273.315 493.168 273.348 493.468 273.348L528.097 273.275L528.834 264.954Z" fill="#FDC018"/>
<path d="M549.588 227.344C548.757 229.723 547.772 232.047 546.638 234.298" stroke="#1C1C1B" stroke-width="0.666667" stroke-miterlimit="10"/>
<path d="M536.229 189.634C535.482 193.482 534.265 197.236 532.612 200.79" stroke="#1C1C1B" stroke-width="0.666667" stroke-miterlimit="10"/>
<path d="M531.985 202.687C531.256 203.992 530.527 205.295 529.797 206.6" stroke="#1C1C1B" stroke-width="0.666667" stroke-miterlimit="10"/>
<path d="M525.252 277.701C525.123 281.497 524.907 285.291 524.604 289.077" stroke="#1C1C1B" stroke-width="0.666667" stroke-miterlimit="10"/>
<path d="M524.696 290.446C524.636 291.254 524.576 292.063 524.516 292.87" stroke="#1C1C1B" stroke-width="0.666667" stroke-miterlimit="10"/>
<path d="M400.763 231.304C401.558 232.264 403.089 232.508 404.142 231.844" stroke="black" stroke-width="0.666667" stroke-miterlimit="10"/>
<path d="M336.056 139.162L329.741 135.777L323.373 139.06L324.641 132.009L319.552 126.966L326.649 125.993L329.872 119.594L332.99 126.045L340.073 127.133L334.901 132.09L336.056 139.162Z" fill="black"/>
<path d="M515.224 77.7976C514.548 78.3309 513.912 79.0189 513.794 79.8736C513.686 80.6536 514.04 81.4362 514.537 82.0469C515.712 83.4896 517.577 84.1296 519.145 85.1282C521.24 86.4629 522.861 88.5256 523.662 90.8776C524.089 92.1296 524.293 93.4669 524.889 94.6496C525.484 95.8322 526.618 96.8816 527.944 96.8442C529.09 96.8122 530.09 95.9522 530.593 94.9216C531.096 93.8882 531.185 92.7082 531.196 91.5589C531.234 87.8096 530.188 83.9682 528.946 80.4389C527.897 77.4589 524.569 75.8949 521.548 75.7656C519.29 75.6669 516.998 76.3976 515.224 77.7976Z" stroke="black" stroke-width="0.666667" stroke-miterlimit="10"/>
<path d="M548.388 149.859C543.312 154.565 538.238 159.275 533.162 163.983" stroke="black" stroke-width="0.666667" stroke-miterlimit="10"/>
<path d="M539.549 161.872C537.348 164.125 535.045 166.284 532.653 168.333" stroke="black" stroke-width="0.666667" stroke-miterlimit="10"/>
<path d="M411.563 146.011C407.162 150.268 402.76 154.526 398.359 158.783" stroke="black" stroke-width="0.666667" stroke-miterlimit="10"/>
<path d="M403.586 157.926C406.326 155.425 408.993 152.849 411.584 150.204" stroke="black" stroke-width="0.666667" stroke-miterlimit="10"/>
</svg>
