<svg width="121" height="49" viewBox="0 0 121 49" fill="none" xmlns="http://www.w3.org/2000/svg">
<path d="M1.224 39V36.084L2.412 35.976C3.108 35.904 3.456 35.568 3.456 34.968V18.228L1.404 18.12V15.06H11.268C14.796 15.06 17.544 15.996 19.512 17.868C21.504 19.74 22.5 22.512 22.5 26.184C22.5 28.464 22.2 30.456 21.6 32.16C21 33.84 20.184 35.16 19.152 36.12C17.088 38.04 14.52 39 11.448 39H1.224ZM7.848 18.552V35.544H11.52C13.584 35.544 15.192 34.8 16.344 33.312C17.496 31.824 18.072 29.664 18.072 26.832C18.072 21.312 15.732 18.552 11.052 18.552H7.848ZM41.2934 21.612V35.004C41.2934 35.388 41.3534 35.652 41.4734 35.796C41.6174 35.94 41.8574 36.024 42.1934 36.048L43.3454 36.12V39H37.6214V36.912L37.5134 36.876C36.3134 38.604 34.6694 39.468 32.5814 39.468C30.1334 39.468 28.3214 38.688 27.1454 37.128C25.9694 35.568 25.3814 33.432 25.3814 30.72C25.3814 27.456 26.1734 24.912 27.7574 23.088C29.3414 21.264 31.7174 20.352 34.8854 20.352C36.9254 20.352 39.0614 20.772 41.2934 21.612ZM37.1174 33.276V23.952C36.4454 23.64 35.5214 23.484 34.3454 23.484C32.7374 23.484 31.5734 24.132 30.8534 25.428C30.1334 26.724 29.7734 28.44 29.7734 30.576C29.7734 34.464 31.0214 36.408 33.5174 36.408C34.5734 36.408 35.4374 36.096 36.1094 35.472C36.7814 34.824 37.1174 34.092 37.1174 33.276ZM47.7872 34.968V24.996C47.7872 24.612 47.7152 24.348 47.5712 24.204C47.4512 24.036 47.2232 23.94 46.8872 23.916L45.3752 23.808V20.892H51.4592V23.592C51.8912 22.656 52.5632 21.888 53.4752 21.288C54.3872 20.664 55.4312 20.352 56.6072 20.352C57.8072 20.352 58.9472 20.616 60.0272 21.144V26.508L56.6792 26.76V25.104C56.6792 24.624 56.5592 24.324 56.3192 24.204C56.0552 24.084 55.7312 24.024 55.3472 24.024C54.3872 24.024 53.5952 24.372 52.9712 25.068C52.3712 25.74 52.0712 26.604 52.0712 27.66V36.012L55.2032 36.156V39H45.5552V36.264L46.7432 36.156C47.1032 36.108 47.3672 36.012 47.5352 35.868C47.7032 35.7 47.7872 35.4 47.7872 34.968ZM68.3761 34.644V20.496L64.1641 22.656L62.5801 19.884L69.1321 15.816H72.6601V35.76L76.4041 35.94V39H63.8761V36.048L67.3321 35.832C67.6921 35.808 67.9561 35.712 68.1241 35.544C68.2921 35.376 68.3761 35.076 68.3761 34.644ZM94.6958 21.612V35.004C94.6958 35.388 94.7558 35.652 94.8758 35.796C95.0198 35.94 95.2598 36.024 95.5958 36.048L96.7478 36.12V39H91.0238V36.912L90.9158 36.876C89.7158 38.604 88.0718 39.468 85.9838 39.468C83.5358 39.468 81.7238 38.688 80.5478 37.128C79.3718 35.568 78.7838 33.432 78.7838 30.72C78.7838 27.456 79.5758 24.912 81.1598 23.088C82.7438 21.264 85.1198 20.352 88.2878 20.352C90.3278 20.352 92.4638 20.772 94.6958 21.612ZM90.5198 33.276V23.952C89.8478 23.64 88.9238 23.484 87.7478 23.484C86.1398 23.484 84.9758 24.132 84.2558 25.428C83.5358 26.724 83.1758 28.44 83.1758 30.576C83.1758 34.464 84.4238 36.408 86.9198 36.408C87.9758 36.408 88.8398 36.096 89.5118 35.472C90.1838 34.824 90.5198 34.092 90.5198 33.276ZM101.154 34.788V18.228L99.1015 18.12V15.06H107.742V17.976L106.554 18.084C105.858 18.156 105.51 18.54 105.51 19.236V27.156L112.854 18.228L110.838 18.12V15.06H119.262V17.976L118.074 18.084C117.618 18.132 117.138 18.468 116.634 19.092L111.522 25.356L117.894 35.832L119.802 35.94V39H110.586V36.084L111.702 35.976C112.182 35.928 112.422 35.736 112.422 35.4C112.422 35.256 112.362 35.064 112.242 34.824L108.678 28.668L105.51 32.484V35.832L107.562 35.94V39H98.9215V36.084L100.11 35.976C100.47 35.928 100.734 35.832 100.902 35.688C101.07 35.52 101.154 35.22 101.154 34.788Z" fill="black"/>
<line y1="47" x2="121" y2="47" stroke="#4A5980" stroke-width="4"/>
</svg>
